<svg width="705" height="781" viewBox="0 0 705 781" fill="none" xmlns="http://www.w3.org/2000/svg">
<mask id="mask0_28_1171" style="mask-type:luminance" maskUnits="userSpaceOnUse" x="7" y="0" width="699" height="739">
<path d="M692.283 0H307.423C304.921 36.2607 286.783 103.711 192.966 139.972C60.5791 190.939 -3.63373 258.136 9.50071 376.807C22.6351 495.479 115.619 578.904 242.376 602.233C369.134 625.561 407.287 721.158 512.779 735.104C599.716 746.515 655.59 732.315 705.001 699.097V15.4679C705.001 6.84645 699.371 0 692.283 0Z" fill="white"/>
</mask>
<g mask="url(#mask0_28_1171)">
<path d="M692.282 -0.000488281H307.422C304.92 36.2603 286.782 103.71 192.965 139.971C60.5781 190.939 -3.63471 258.135 9.49973 376.807C22.6342 495.479 115.618 578.904 242.375 602.232C369.133 625.561 407.286 721.157 512.778 735.104C599.716 746.514 655.589 732.314 705 699.097V15.4674C705 6.84596 699.37 -0.000488281 692.282 -0.000488281Z" fill="#F689AB"/>
<path d="M474.209 263.966L404.993 290.084L351.83 251.541C350.787 250.78 350.996 248.752 352.038 248.498C358.501 245.963 365.381 245.455 372.053 246.47L474.209 263.966Z" fill="#44178C"/>
<path d="M366.216 245.962L416.043 281.97L467.33 262.698L372.262 246.47C370.385 246.216 368.301 245.962 366.216 245.962Z" fill="#A536AD"/>
<path d="M240.917 320.512H240.083C233.62 323.301 226.532 322.541 220.486 318.737L156.273 279.18C153.563 277.659 150.644 277.151 147.725 278.419L143.347 280.194C142.513 280.448 142.096 281.716 142.513 282.73L165.655 349.166L168.991 358.801L243.628 330.655L241.126 320.766L240.917 320.512Z" fill="#44178C"/>
<path d="M307.842 362.606L592.839 255.091C609.1 249.006 624.945 240.638 639.747 229.988L677.274 203.616C677.9 203.109 678.317 202.855 678.734 202.348C683.529 196.77 680.818 186.88 674.355 185.866L632.45 179.273C624.111 178.005 615.563 178.766 607.641 181.809L170.452 346.884C169.409 347.138 168.575 347.898 167.95 349.166C165.865 352.463 167.116 357.281 170.452 358.548L177.957 361.591C220.279 378.327 265.728 378.834 308.051 362.606H307.842Z" fill="#44178C"/>
<path d="M289.286 349.927L605.138 230.748C623.276 223.902 640.58 214.52 657.05 203.109L678.316 188.148C677.273 186.88 675.814 186.12 674.146 185.866L632.241 179.273C623.902 178.005 615.354 178.766 607.432 181.809L170.242 346.884C169.2 347.138 168.366 347.898 167.741 349.166C166.281 351.448 166.49 354.238 167.741 356.266C207.978 366.916 249.883 364.888 289.286 350.181V349.927Z" fill="white"/>
<path d="M619.521 195.25L653.295 182.571L632.238 179.275L617.019 185.107C614.725 185.868 613.474 188.911 614.1 191.953C614.725 194.743 617.227 196.264 619.729 195.504L619.521 195.25Z" fill="#A536AD"/>
<path d="M572.426 215.813L575.015 214.838C576.005 214.466 576.559 213.188 576.253 211.984L575.451 208.834C575.145 207.63 574.094 206.957 573.104 207.329L570.515 208.304C569.525 208.677 568.971 209.955 569.277 211.159L570.079 214.308C570.385 215.512 571.436 216.186 572.426 215.813Z" fill="#A536AD"/>
<path d="M553.888 222.959L556.477 221.984C557.467 221.612 558.021 220.334 557.715 219.13L556.913 215.98C556.607 214.776 555.556 214.103 554.566 214.475L551.977 215.45C550.987 215.823 550.433 217.101 550.739 218.305L551.541 221.454C551.847 222.658 552.898 223.332 553.888 222.959Z" fill="#A536AD"/>
<path d="M535.487 229.789L538.076 228.814C539.066 228.441 539.62 227.163 539.313 225.959L538.512 222.81C538.205 221.606 537.154 220.932 536.165 221.305L533.575 222.28C532.586 222.652 532.032 223.931 532.338 225.135L533.139 228.284C533.446 229.488 534.497 230.162 535.487 229.789Z" fill="#A536AD"/>
<path d="M517.147 237.115L519.736 236.141C520.726 235.768 521.28 234.49 520.973 233.286L520.172 230.137C519.866 228.933 518.815 228.259 517.825 228.632L515.236 229.606C514.246 229.979 513.692 231.257 513.998 232.461L514.799 235.61C515.106 236.814 516.157 237.488 517.147 237.115Z" fill="#A536AD"/>
<path d="M498.549 243.766L501.138 242.792C502.128 242.419 502.682 241.141 502.376 239.937L501.574 236.788C501.268 235.584 500.217 234.91 499.227 235.282L496.638 236.257C495.648 236.63 495.094 237.908 495.4 239.112L496.202 242.261C496.508 243.465 497.559 244.139 498.549 243.766Z" fill="#A536AD"/>
<path d="M480.146 250.595L482.735 249.621C483.725 249.248 484.279 247.97 483.972 246.766L483.171 243.617C482.865 242.413 481.814 241.739 480.824 242.111L478.235 243.086C477.245 243.459 476.691 244.737 476.997 245.941L477.799 249.09C478.105 250.294 479.156 250.968 480.146 250.595Z" fill="#A536AD"/>
<path d="M461.6 257.92L464.189 256.945C465.179 256.573 465.733 255.294 465.427 254.09L464.625 250.941C464.319 249.737 463.268 249.064 462.278 249.436L459.689 250.411C458.699 250.784 458.145 252.062 458.451 253.266L459.253 256.415C459.559 257.619 460.61 258.293 461.6 257.92Z" fill="#A536AD"/>
<path d="M442.999 264.826L445.588 263.851C446.578 263.478 447.132 262.2 446.826 260.996L446.025 257.847C445.718 256.643 444.667 255.969 443.677 256.342L441.088 257.317C440.098 257.689 439.544 258.968 439.851 260.172L440.652 263.321C440.959 264.525 442.009 265.199 442.999 264.826Z" fill="#A536AD"/>
<path d="M424.66 271.898L427.25 270.923C428.239 270.551 428.794 269.272 428.487 268.068L427.686 264.919C427.379 263.715 426.328 263.042 425.338 263.414L422.749 264.389C421.759 264.762 421.205 266.04 421.512 267.244L422.313 270.393C422.62 271.597 423.671 272.271 424.66 271.898Z" fill="#A536AD"/>
<path d="M406.061 278.803L408.65 277.828C409.64 277.455 410.194 276.177 409.888 274.973L409.086 271.824C408.78 270.62 407.729 269.946 406.739 270.319L404.15 271.294C403.16 271.666 402.606 272.945 402.912 274.149L403.714 277.298C404.02 278.502 405.071 279.176 406.061 278.803Z" fill="#A536AD"/>
<path d="M387.72 285.874L390.309 284.899C391.299 284.527 391.853 283.249 391.547 282.045L390.745 278.896C390.439 277.691 389.388 277.018 388.398 277.39L385.809 278.365C384.819 278.738 384.265 280.016 384.571 281.22L385.373 284.369C385.679 285.573 386.73 286.247 387.72 285.874Z" fill="#A536AD"/>
<path d="M369.32 292.705L371.909 291.731C372.899 291.358 373.453 290.08 373.146 288.876L372.345 285.727C372.038 284.523 370.988 283.849 369.998 284.221L367.409 285.196C366.419 285.569 365.865 286.847 366.171 288.051L366.972 291.2C367.279 292.404 368.33 293.078 369.32 292.705Z" fill="#A536AD"/>
<path d="M350.783 299.853L353.372 298.878C354.362 298.505 354.916 297.227 354.609 296.023L353.808 292.874C353.501 291.67 352.45 290.996 351.46 291.369L348.871 292.344C347.881 292.716 347.327 293.994 347.634 295.199L348.435 298.348C348.742 299.552 349.793 300.225 350.783 299.853Z" fill="#A536AD"/>
<path d="M503.815 259.91L397.28 300.228L358.085 403.685C357.043 406.474 359.128 409.517 361.63 408.756L364.131 407.742C371.22 404.953 377.891 400.388 383.312 394.303L503.815 260.163V259.91Z" fill="#44178C"/>
<path d="M379.976 395.824C379.768 396.331 379.768 397.092 379.768 397.599C381.018 396.331 382.269 395.317 383.312 394.049L503.815 259.91L419.588 291.86L380.185 396.078L379.976 395.824Z" fill="#A536AD"/>
<path d="M204.64 341.054L167.113 355.254L152.311 394.304L159.399 391.514L204.64 341.054Z" fill="#44178C"/>
<path d="M186.71 229.48C188.795 224.662 194.841 221.112 201.721 221.112C208.601 221.112 205.473 221.366 207.141 221.873C207.975 218.83 210.269 216.295 213.187 214.52C215.064 203.616 227.156 194.995 241.749 194.995C256.343 194.995 262.389 199.812 267.184 206.912C269.895 205.645 273.022 205.137 276.358 205.137C286.365 205.137 294.496 211.477 294.496 219.337C294.496 227.198 294.496 220.605 294.496 221.112C295.121 221.112 295.538 221.112 296.164 221.112C303.252 221.112 309.09 224.662 311.174 229.48H186.71Z" fill="white"/>
<path d="M-30.3193 308.088C-28.2345 303.27 -22.1885 299.72 -15.3085 299.72C-8.42858 299.72 -11.5559 299.974 -9.88801 300.481C-9.05408 297.438 -6.76071 294.903 -3.84195 293.128C-1.9656 282.224 10.1264 273.603 24.7202 273.603C39.314 273.603 45.3601 278.42 50.1552 285.52C52.8655 284.253 55.9927 283.745 59.3284 283.745C69.3356 283.745 77.4665 290.085 77.4665 297.945C77.4665 305.806 77.4665 299.213 77.4665 299.72C78.0919 299.72 78.5089 299.72 79.1343 299.72C86.2227 299.72 92.0603 303.27 94.1451 308.088H-30.3193Z" fill="white"/>
<path d="M477.544 357.282C479.629 352.464 485.675 348.914 492.555 348.914C499.435 348.914 496.308 349.167 497.975 349.675C498.809 346.632 501.103 344.096 504.021 342.321C505.898 331.417 517.99 322.796 532.584 322.796C547.177 322.796 553.223 327.614 558.019 334.714C560.729 333.446 563.856 332.939 567.192 332.939C577.199 332.939 585.33 339.278 585.33 347.139C585.33 355 585.33 348.407 585.33 348.914C585.955 348.914 586.372 348.914 586.998 348.914C594.086 348.914 599.924 352.464 602.008 357.282H477.544Z" fill="white"/>
<path d="M520.286 188.656C517.992 183.838 512.155 180.288 505.066 180.288C497.978 180.288 501.314 180.542 499.437 181.049C498.603 178.006 496.31 175.471 493.183 173.696C491.306 162.538 479.006 153.917 464.204 153.917C449.401 153.917 443.355 158.735 438.352 166.088C435.641 164.821 432.514 164.06 429.179 164.06C418.963 164.06 410.623 170.399 410.623 178.513C410.623 186.628 410.623 179.781 410.623 180.288C409.998 180.288 409.581 180.288 408.956 180.288C401.867 180.288 395.821 183.838 393.736 188.656H520.077H520.286Z" fill="white"/>
<path d="M505.274 55.5312C506.942 51.7277 511.737 48.9384 517.366 48.9384C522.995 48.9384 520.494 48.9384 521.745 49.4455C522.37 47.1634 524.246 45.1348 526.54 43.6134C527.999 34.7384 537.589 28.1455 549.264 28.1455C560.939 28.1455 565.735 31.9491 569.487 37.5277C571.572 36.5134 574.074 36.0062 576.784 36.0062C584.915 36.0062 591.378 41.0777 591.378 47.4169C591.378 53.7562 591.378 48.4312 591.378 48.9384C591.795 48.9384 592.212 48.9384 592.629 48.9384C598.258 48.9384 602.844 51.7277 604.721 55.5312H505.274Z" fill="white"/>
<path d="M348.077 37.7813C348.911 36.0063 350.996 34.7384 353.498 34.7384C356 34.7384 354.749 34.7384 355.374 34.992C355.583 33.9777 356.416 32.9634 357.459 32.4563C358.084 28.6527 362.462 25.6099 367.466 25.6099C372.47 25.6099 374.763 27.3849 376.431 29.9206C377.473 29.4134 378.516 29.1599 379.558 29.1599C383.102 29.1599 386.021 31.442 386.021 34.2313C386.021 37.0206 386.021 34.7384 386.021 34.992C386.021 34.992 386.438 34.992 386.647 34.992C389.148 34.992 391.233 36.2599 392.067 38.0349H348.077V37.7813Z" fill="white"/>
<path d="M757.956 301.495C756.079 297.184 750.659 293.888 744.196 293.888C737.733 293.888 740.652 294.141 739.192 294.649C738.358 291.859 736.482 289.577 733.563 288.056C731.895 278.166 720.846 270.306 707.711 270.306C694.577 270.306 688.948 274.616 684.57 281.209C682.068 280.195 679.358 279.434 676.23 279.434C667.057 279.434 659.76 285.266 659.76 292.366C659.76 299.466 659.76 293.381 659.76 294.141C659.343 294.141 658.718 294.141 658.301 294.141C652.046 294.141 646.626 297.438 644.541 301.749H757.539L757.956 301.495Z" fill="white"/>
<path d="M817.375 592.347H-16.5576V774.158H817.375V592.347Z" fill="#B639A4"/>
<path d="M817.375 525.403H-16.5576V564.707H817.375V525.403Z" fill="#CF4C9F"/>
<g opacity="0.4">
<path d="M-38.4527 754.375H-71.1846L353.079 -39.5576H385.81L-38.4527 754.375Z" fill="white"/>
<path d="M499.017 754.375H466.285L890.548 -39.5576H923.28L499.017 754.375Z" fill="white"/>
<path d="M438.766 754.375H315.761L740.024 -39.5576H862.821L438.766 754.375Z" fill="white"/>
<path d="M-97.4525 754.375H-220.249L204.014 -39.5576H326.811L-97.4525 754.375Z" fill="white"/>
</g>
<path d="M172.535 -87.9902H154.605V751.332H172.535V-87.9902Z" fill="white"/>
<path d="M633.909 -87.9902H615.979V751.332H633.909V-87.9902Z" fill="white"/>
<path d="M872.413 142.253V119.939L-84.1077 119.939V142.253L872.413 142.253Z" fill="white"/>
</g>
<path d="M328.896 781C418.591 781 491.304 772.372 491.304 761.728C491.304 751.085 418.591 742.457 328.896 742.457C239.2 742.457 166.487 751.085 166.487 761.728C166.487 772.372 239.2 781 328.896 781Z" fill="#FF6893"/>
<path d="M395.404 491.422L337.654 509.172C337.654 509.172 352.457 587.779 358.294 616.686C364.132 646.101 361.004 740.936 361.004 740.936H377.475L386.439 616.179L395.404 491.422Z" fill="#1B173D"/>
<path d="M382.686 363.622C382.686 363.622 388.524 388.219 398.114 430.058C398.114 430.058 410.414 435.383 443.355 438.426L442.312 451.865C442.312 451.865 405.828 459.98 385.605 449.837C365.382 439.694 348.495 350.183 382.478 363.622H382.686Z" fill="#FFA689"/>
<path d="M414.791 450.09L431.887 474.433L459.823 430.058L448.565 403.687L414.791 450.09Z" fill="#361270"/>
<path d="M411.663 460.235L441.059 412.31L459.823 430.06L431.886 474.435L411.663 460.235Z" fill="#44178C"/>
<path d="M455.03 439.948C455.03 439.187 454.196 438.933 453.571 439.441C452.528 440.201 451.277 441.976 448.567 442.23C445.648 442.23 442.104 439.948 440.853 441.469C440.853 441.469 434.807 451.105 440.853 460.487C440.853 460.487 459.617 466.573 455.03 440.201V439.948Z" fill="#FFA689"/>
<path d="M371.221 435.13C371.221 435.13 385.815 432.595 397.907 419.916C397.907 419.916 393.737 392.023 387.691 375.287C381.645 358.552 372.472 343.845 357.253 354.748C342.033 365.652 346.412 390.755 371.221 435.13Z" fill="#361270"/>
<path d="M322.227 423.973C322.227 423.973 334.736 433.609 350.58 433.609C350.58 433.609 362.255 409.266 366.842 391.769C371.429 374.273 372.263 355.762 354.75 351.959C337.446 348.155 327.23 370.723 322.227 423.973Z" fill="#5172ED"/>
<path d="M387.272 499.028C387.272 499.028 351.622 484.321 329.522 508.664C329.522 508.664 333.483 531.485 345.784 558.618C366.424 604.514 376.848 619.475 376.848 619.475C376.848 619.475 354.332 643.818 311.176 704.421C311.176 704.421 313.886 716.846 322.642 720.903C322.642 720.903 386.021 648.128 405.202 628.857C411.456 622.518 410.205 617.7 407.704 603.753C403.534 579.918 389.774 509.932 387.272 499.028Z" fill="#271F50"/>
<path d="M357.042 318.739L356.208 337.757C356.208 337.757 368.508 349.928 378.516 349.421L383.102 324.064L354.54 300.482L356.833 318.739H357.042Z" fill="#FFA689"/>
<path d="M362.879 315.443C362.879 315.443 369.342 330.15 381.226 334.715L383.102 324.065L362.671 315.443H362.879Z" fill="#ED8A6D"/>
<path d="M337.86 577.636L308.673 550.758C307.005 549.236 306.796 546.447 308.047 544.418C309.298 542.39 311.592 542.136 313.259 543.658L342.447 570.536C344.115 572.058 344.323 574.847 343.073 576.876C341.822 578.904 339.528 579.158 337.86 577.636Z" fill="#060412"/>
<path d="M313.677 553.8L249.673 656.243" stroke="#060412" stroke-width="0.9" stroke-miterlimit="10"/>
<path d="M334.108 572.565L270.104 675.262" stroke="#060412" stroke-width="0.9" stroke-miterlimit="10"/>
<path d="M331.606 367.173C331.606 367.173 300.542 369.201 295.539 390.501C290.535 411.801 291.161 495.987 291.161 495.987C291.161 495.987 297.832 515.005 318.889 517.541C318.889 517.541 329.939 520.584 329.313 492.691C328.688 464.544 331.815 367.426 331.815 367.426L331.606 367.173Z" fill="#171032"/>
<path d="M314.096 371.229C314.096 371.229 310.968 374.526 309.301 378.837C303.255 394.812 305.131 437.919 302.421 441.469C300.336 444.258 296.583 445.019 293.039 446.033C291.579 446.54 289.703 445.272 289.703 443.497C291.163 406.73 288.661 376.047 314.096 371.229Z" fill="#211D49"/>
<path d="M291.372 451.357C291.372 451.357 299.712 449.075 301.171 451.357C303.256 454.907 302.422 494.464 300.129 495.479C297.835 496.493 289.704 495.479 289.079 494.971C287.411 491.929 286.369 452.625 291.164 451.357H291.372Z" fill="#211D49"/>
<path d="M396.654 271.067C396.654 271.067 405.202 322.035 392.484 328.374C379.767 334.714 361.004 318.739 356.417 302.51C352.456 288.817 352.873 255.853 396.863 271.067H396.654Z" fill="#FFA689"/>
<path d="M383.937 279.183C383.937 279.183 387.482 290.087 380.602 292.622C374.973 294.651 373.305 299.722 373.305 299.722C373.305 299.722 372.262 288.819 366.008 288.311C359.336 287.804 359.753 299.469 365.591 305.047C365.591 305.047 365.591 318.74 357.043 318.74C357.043 318.74 337.654 291.608 345.994 275.126C344.743 270.054 350.58 256.869 365.382 255.094C380.393 253.319 384.563 257.629 396.029 253.319C406.871 249.261 413.959 280.958 383.937 278.929V279.183Z" fill="#171032"/>
<path opacity="0.2" d="M359.338 494.717L397.908 616.178L316.391 711.267" stroke="white" stroke-width="0.2" stroke-miterlimit="10"/>
<path d="M251.342 761.726C251.342 768.065 247.172 773.137 241.96 773.137C236.748 773.137 232.578 768.065 232.578 761.726C232.578 755.387 236.748 750.315 241.96 750.315C247.172 750.315 251.342 755.387 251.342 761.726Z" fill="#060412"/>
<path d="M216.525 741.694C216.525 748.033 212.356 753.105 207.143 753.105C201.931 753.105 197.762 748.033 197.762 741.694C197.762 735.355 201.931 730.283 207.143 730.283C212.356 730.283 216.525 735.355 216.525 741.694Z" fill="#060412"/>
<path d="M292.206 653.96C292.206 653.96 295.125 704.674 280.114 732.567C265.103 760.46 243.421 756.149 243.421 756.149L248.008 747.528C248.008 747.528 263.644 755.389 273.026 725.467C282.407 695.546 280.531 664.61 280.531 664.61L292.206 653.96Z" fill="#060412"/>
<path d="M274.901 639.761C274.901 639.761 284.283 640.775 291.58 651.679C297.209 660.047 254.47 740.429 244.879 758.179C243.628 760.207 241.544 761.222 239.667 760.714C232.787 758.432 216.943 752.6 205.268 741.95C205.268 741.95 249.466 647.621 274.901 639.761Z" fill="#171032"/>
<path d="M278.237 640.522C278.237 640.522 243.212 614.911 224.24 636.211C211.731 650.411 187.547 690.222 178.373 705.944C176.08 709.747 176.497 715.072 179.207 718.369C185.253 725.469 197.762 736.879 206.727 742.711C207.978 743.472 209.646 742.965 210.48 741.444C218.194 727.497 254.678 661.315 278.237 640.522Z" fill="#211D49"/>
<path d="M200.471 672.723C199.012 671.455 197.136 672.216 195.885 673.737C191.507 680.837 180.249 698.587 178.581 702.137C175.245 708.73 188.588 722.677 204.641 733.073C209.645 736.37 215.899 722.17 222.362 711.52C228.825 700.87 230.284 698.08 229.868 695.798C229.242 693.262 220.903 690.22 213.189 684.387C208.185 680.584 203.807 676.273 200.263 672.977L200.471 672.723Z" fill="#2E2C60"/>
<path d="M278.234 640.52C278.234 640.52 262.39 626.828 239.874 626.321C220.693 626.067 199.845 666.131 199.845 666.131C197.135 670.442 229.866 694.531 233.619 688.953C248.004 667.399 262.181 650.917 269.478 642.803C269.895 642.296 273.856 638.492 278.443 640.267L278.234 640.52Z" fill="#2E2C60"/>
<path d="M218.819 737.384L238.416 701.63C239.042 700.363 240.501 699.855 241.752 700.616L260.933 711.773C262.183 712.534 262.6 714.309 261.766 715.577L242.794 750.57C241.752 752.598 239.667 753.359 237.791 752.345L220.487 743.47C218.61 742.456 217.777 739.666 219.027 737.384H218.819Z" fill="#1C163F"/>
<path d="M351.828 340.293C351.828 340.293 332.648 344.604 329.521 379.343C326.393 414.082 329.521 512.722 329.521 512.722C329.521 512.722 347.45 521.09 367.673 509.172C380.808 501.311 389.147 501.057 392.691 500.043C394.151 499.536 395.193 498.015 395.193 496.24C395.193 492.436 395.193 485.082 395.193 474.179C395.193 443.497 392.483 391.007 381.433 355.254C381.433 355.254 362.878 341.561 351.62 340.547L351.828 340.293Z" fill="#44178C"/>
<path d="M364.757 403.685C348.704 402.67 337.029 410.531 328.272 422.449C328.272 463.527 329.732 512.467 329.732 512.467C329.732 512.467 340.364 517.538 354.541 514.242C344.326 495.477 344.326 477.981 353.082 456.681C360.17 439.692 364.757 403.685 364.757 403.685Z" fill="#361270"/>
<path d="M329.731 379.09C329.731 379.09 344.95 348.915 356 354.24C369.551 360.579 372.47 392.529 352.039 426.254L341.197 440.2L338.487 452.625C338.487 452.625 366.215 422.704 372.887 393.797C379.35 364.89 370.802 353.225 358.919 348.408C344.116 342.322 337.236 353.225 328.271 368.186L330.148 379.09H329.731Z" fill="#171032"/>
<path d="M327.23 410.278C327.23 410.278 322.644 434.874 320.976 465.81C319.725 491.928 319.516 524.132 319.516 533.514C319.516 535.035 318.891 536.81 318.057 537.824C315.555 540.867 310.552 548.475 311.386 560.392C311.594 564.703 313.262 570.535 321.81 573.832C323.061 574.339 326.188 575.86 326.188 568.507C326.188 561.153 328.69 556.082 331.192 553.8C333.693 551.264 336.195 557.857 336.195 563.182C336.195 568.507 339.114 565.21 339.739 561.407C340.365 557.603 339.739 547.46 333.276 537.064C333.276 537.064 333.276 535.289 333.902 522.61C334.736 509.932 336.404 467.332 340.156 456.174C343.909 445.271 354.542 414.082 354.542 414.082L327.022 410.024L327.23 410.278Z" fill="#FFA689"/>
<path d="M322.227 426.253C322.227 426.253 334.736 433.353 350.58 433.353C350.58 433.353 362.255 409.01 366.842 391.514C371.429 374.017 372.263 355.507 354.75 351.703C337.446 347.899 327.23 372.749 322.227 425.999V426.253Z" fill="#44178C"/>
<path d="M361.424 738.907C361.424 738.907 356.837 747.022 359.13 758.686C359.547 760.461 360.59 761.729 362.049 761.729H411.668C412.711 761.729 413.545 760.461 413.336 759.193C412.919 755.643 410.626 749.811 398.951 748.036C395.823 747.529 392.696 746.007 389.986 743.725C385.816 739.668 379.353 734.089 377.06 735.611C377.06 735.611 369.972 740.936 361.424 738.907Z" fill="#171032"/>
<path d="M356.418 333.699C354.75 333.699 351.831 340.292 351.831 340.292C351.831 340.292 357.043 345.109 369.761 350.942C375.598 353.477 378.725 357.281 379.976 359.563C380.393 360.324 381.227 360.07 381.436 359.056C381.853 355.506 382.061 349.674 379.142 346.124C379.142 346.124 361.63 340.292 356.209 333.699H356.418Z" fill="#271F50"/>
<path d="M311.592 704.676C311.592 704.676 303.462 705.944 297.832 715.833C296.999 717.354 296.999 719.129 297.832 720.397L330.773 765.533C331.398 766.547 332.649 766.547 333.483 765.533C335.359 762.997 337.444 756.912 330.773 744.994C328.897 741.697 327.854 737.894 327.646 734.09C327.229 727.497 326.395 718.115 323.893 717.101C323.893 717.101 315.971 714.058 311.592 705.183V704.676Z" fill="#171032"/>
<path d="M332.025 560.9L339.739 568L339.113 572.311L330.148 566.733L332.025 560.9Z" fill="#060412"/>
<path d="M119.164 647.877C119.164 650.666 106.863 652.694 91.8523 652.694C76.8415 652.694 64.541 650.412 64.541 647.877C64.541 645.341 76.8415 643.059 91.8523 643.059C106.863 643.059 119.164 645.341 119.164 647.877Z" fill="#F9F8FC"/>
<path d="M91.8513 767.054C120.176 767.054 143.138 763.875 143.138 759.953C143.138 756.032 120.176 752.854 91.8513 752.854C63.5264 752.854 40.5645 756.032 40.5645 759.953C40.5645 763.875 63.5264 767.054 91.8513 767.054Z" fill="#FF6893"/>
<path d="M98.5214 656.499C98.5214 656.499 92.8924 635.706 100.189 626.577C107.486 617.195 95.8112 601.473 112.907 592.598C130.002 583.723 129.377 562.931 144.388 562.677C159.19 562.677 170.865 554.056 175.869 562.17C180.664 570.284 158.148 574.088 158.148 587.527C158.148 600.966 155.854 602.488 149.808 610.856C146.473 615.673 147.932 626.07 140.427 636.213C134.381 644.073 118.744 641.538 98.7299 656.499H98.5214Z" fill="#FDC6CC"/>
<path d="M98.5225 656.501C98.5225 656.501 105.611 635.708 122.081 624.804C138.551 613.901 132.714 569.018 175.661 562.172" stroke="white" stroke-width="0.4" stroke-linecap="round" stroke-linejoin="round"/>
<path d="M101.86 666.386C101.86 666.386 98.9409 636.718 104.362 613.136C109.782 589.553 100.817 581.693 85.3895 575.607C69.9618 569.521 79.552 549.743 74.9654 531.486C70.3787 513.228 58.9122 541.628 54.951 516.778C51.1983 491.928 45.3608 478.996 40.5657 480.011C35.7705 481.025 34.3111 486.603 30.9754 515.003C27.6397 543.403 11.378 541.375 25.5548 563.943C39.7317 586.511 43.2759 580.171 35.3536 599.696C18.6749 641.536 78.5096 629.111 101.651 666.386H101.86Z" fill="#DD65A6"/>
<path d="M101.858 666.384C101.858 666.384 94.1446 616.684 72.0454 592.087C49.9462 567.491 35.3524 541.12 40.7729 480.009" stroke="white" stroke-width="0.5" stroke-linecap="round" stroke-linejoin="round"/>
<path d="M94.1446 662.329C94.1446 662.329 70.169 584.989 53.6988 589.807C37.2286 594.625 35.5608 595.639 20.3415 581.186C5.3307 566.478 -5.7189 582.453 5.74767 594.371C17.2142 606.289 17.6312 607.05 6.79009 619.982C-4.25952 632.914 22.0094 647.368 45.151 643.057C68.2927 638.746 90.6004 655.989 94.1446 662.582V662.329Z" fill="#FDC6CC"/>
<path d="M94.1446 662.326C94.1446 662.326 82.8865 633.672 52.6564 626.065C22.4264 618.712 36.6033 594.369 1.16113 582.958" stroke="white" stroke-width="0.4" stroke-linecap="round" stroke-linejoin="round"/>
<path d="M91.8519 652.693C79.3429 652.693 68.7103 651.171 65.583 649.143C68.7103 653.96 78.509 675.768 84.555 759.193C84.555 760.461 87.8907 761.475 92.0604 761.475C96.2301 761.475 99.5657 760.461 99.5657 759.193C105.403 675.768 115.41 654.214 118.538 649.143C115.41 651.171 104.778 652.693 92.2688 652.693H91.8519Z" fill="#390F3B"/>
</svg>
