<svg width="251" height="266" viewBox="0 0 251 266" fill="none" xmlns="http://www.w3.org/2000/svg">
<path d="M50.5768 243.737C50.4281 244.123 50.0935 244.338 49.7589 244.338C49.6288 244.338 49.4987 244.316 49.3872 244.252C47.7329 243.371 46.1158 242.448 44.5358 241.482C44.0897 241.203 43.9224 240.58 44.1641 240.065C44.4057 239.549 44.9447 239.356 45.3908 239.635C46.915 240.58 48.5136 241.503 50.1307 242.362C50.5768 242.598 50.7813 243.221 50.5768 243.737ZM47.4169 81.3946C47.7329 80.9437 47.6585 80.278 47.2682 79.9344C46.8779 79.5694 46.3016 79.6553 46.0042 80.1062C44.8704 81.7382 43.7737 83.3702 42.7142 85.0022C42.4168 85.4532 42.4912 86.1189 42.8815 86.4625C43.0488 86.6128 43.2347 86.6772 43.4206 86.6772C43.6994 86.6772 43.9596 86.5269 44.1455 86.2692C45.205 84.6587 46.3016 83.0266 47.4169 81.4161V81.3946ZM40.8183 236.564C39.3127 235.469 37.8443 234.31 36.4502 233.128C36.0413 232.785 35.4836 232.892 35.1862 233.343C34.8888 233.816 34.9818 234.46 35.3721 234.803C36.8034 236.027 38.309 237.209 39.8517 238.325C40.0004 238.433 40.1677 238.475 40.335 238.475C40.6324 238.475 40.9298 238.304 41.0971 237.982C41.3573 237.488 41.2458 236.843 40.8183 236.543V236.564ZM34.6286 99.8836C34.2197 99.5615 33.6435 99.7118 33.3832 100.184C32.3795 101.945 31.413 103.684 30.4836 105.424C30.2233 105.918 30.3535 106.562 30.781 106.863C30.9297 106.97 31.097 107.013 31.2642 107.013C31.5617 107.013 31.8591 106.841 32.0263 106.519C32.9557 104.801 33.9037 103.062 34.8888 101.322C35.1677 100.85 35.0561 100.184 34.6286 99.8836ZM28.5133 225.14C28.1601 224.732 27.5839 224.711 27.2307 225.14C26.8776 225.548 26.859 226.214 27.2307 226.622C28.4761 228.104 29.7958 229.542 31.1713 230.917C31.3386 231.088 31.5617 231.174 31.7661 231.174C32.0263 231.174 32.268 231.046 32.4539 230.809C32.7884 230.38 32.7327 229.714 32.3609 229.328C31.0226 227.996 29.7401 226.579 28.5319 225.14H28.5133ZM59.9821 61.2522C58.7554 62.7983 57.5657 64.323 56.3761 65.8476C56.0416 66.2771 56.0787 66.9428 56.4505 67.3293C56.6178 67.5011 56.8408 67.587 57.0453 67.587C57.2869 67.587 57.5472 67.4582 57.7144 67.2434C58.8855 65.7188 60.0751 64.1941 61.2833 62.6695C61.6178 62.24 61.5993 61.5743 61.2275 61.1878C60.8558 60.8013 60.2795 60.8228 59.945 61.2522H59.9821ZM70.2611 249.921C68.5139 249.491 66.7852 248.998 65.0937 248.482C64.6105 248.31 64.1086 248.675 63.9785 249.212C63.8484 249.771 64.1458 250.35 64.629 250.479C66.3391 251.016 68.1049 251.489 69.8708 251.94C69.9265 251.94 70.0009 251.961 70.0566 251.961C70.4656 251.961 70.8559 251.617 70.9488 251.145C71.0604 250.587 70.7444 250.028 70.2611 249.9V249.921ZM54.127 70.4215C53.7553 70.0565 53.1791 70.0994 52.8445 70.5289C51.6735 72.118 50.521 73.707 49.3872 75.2746C49.0712 75.7256 49.127 76.3698 49.4987 76.7563C49.666 76.9066 49.8705 76.9925 50.0749 76.9925C50.3352 76.9925 50.5954 76.8637 50.7813 76.606C51.8965 75.0384 53.049 73.4708 54.22 71.8818C54.536 71.4523 54.4988 70.7866 54.127 70.4001V70.4215ZM76.2277 43.5149C75.8746 43.1069 75.2983 43.0854 74.9452 43.4934C73.644 44.9536 72.3801 46.3924 71.1161 47.8311C70.763 48.2391 70.763 48.9048 71.1161 49.3128C71.2834 49.5275 71.525 49.6134 71.7481 49.6134C71.9712 49.6134 72.2128 49.5061 72.3801 49.3128C73.6255 47.8741 74.8894 46.4353 76.1905 44.9966C76.5437 44.5886 76.5623 43.9229 76.2091 43.5149H76.2277ZM60.0193 246.764C58.3092 246.12 56.6364 245.433 55.0192 244.724C54.5545 244.51 54.0341 244.789 53.8482 245.326C53.6623 245.862 53.904 246.464 54.3687 246.678C56.0044 247.409 57.7144 248.117 59.4617 248.761C59.5546 248.804 59.6476 248.804 59.7405 248.804C60.1308 248.804 60.484 248.525 60.5955 248.074C60.7442 247.516 60.484 246.936 60.0193 246.764ZM64.9636 58.16C66.1718 56.6783 67.3986 55.1966 68.6626 53.7149C69.0157 53.3069 68.9971 52.6412 68.6626 52.2332C68.3094 51.8252 67.7332 51.8467 67.38 52.2332C66.1161 53.7364 64.8707 55.2181 63.6625 56.6998C63.3279 57.1293 63.3279 57.7735 63.6997 58.1815C63.867 58.3747 64.09 58.4606 64.3131 58.4606C64.5547 58.4606 64.7963 58.3533 64.9636 58.1385V58.16ZM10.9108 176.395C11.4127 176.395 11.803 175.944 11.8216 175.364C11.8216 173.345 11.9145 171.305 12.0446 169.265C12.0818 168.686 11.7101 168.192 11.2082 168.149C10.7249 168.127 10.2788 168.535 10.2416 169.115C10.0929 171.198 10.0186 173.302 10 175.364C10 175.944 10.3903 176.416 10.8922 176.416L10.9108 176.395ZM12.5279 187.518C12.2677 185.543 12.0818 183.503 11.9703 181.463C11.9331 180.883 11.5056 180.453 11.0037 180.496C10.5019 180.539 10.1301 181.033 10.1673 181.613C10.2788 183.696 10.4833 185.8 10.7435 187.84C10.8179 188.356 11.1896 188.742 11.6357 188.742C11.6729 188.742 11.7286 188.742 11.7658 188.742C12.2677 188.656 12.6023 188.119 12.5279 187.561V187.518ZM11.6171 164.069C11.6171 164.069 11.7101 164.069 11.7472 164.069C12.1933 164.069 12.5837 163.682 12.6394 163.167C12.8811 161.191 13.1785 159.151 13.5316 157.133C13.6246 156.574 13.3086 156.016 12.8253 155.909C12.342 155.801 11.8588 156.166 11.7658 156.725C11.4127 158.786 11.0967 160.848 10.855 162.866C10.7807 163.446 11.1338 163.961 11.6171 164.047V164.069ZM13.6246 151.936C13.6246 151.936 13.7733 151.979 13.8476 151.979C14.2566 151.979 14.6097 151.657 14.7213 151.206C15.1488 149.273 15.6506 147.276 16.1897 145.322C16.3384 144.764 16.0782 144.184 15.5949 144.012C15.1116 143.84 14.6097 144.141 14.461 144.699C13.922 146.696 13.4201 148.715 12.974 150.691C12.8439 151.249 13.1413 151.829 13.6246 151.958V151.936ZM37.1379 96.6625C37.4168 96.6625 37.7142 96.5122 37.8814 96.2116C38.8852 94.5581 39.9075 92.8831 40.967 91.1867C41.2644 90.7143 41.1715 90.0701 40.7625 89.7265C40.3536 89.3829 39.796 89.4903 39.4986 89.9627C38.4205 91.6591 37.3982 93.3341 36.3944 95.0305C36.1156 95.5029 36.2086 96.1471 36.6175 96.4907C36.7662 96.6196 36.9521 96.684 37.1379 96.684V96.6625ZM21.8775 215.713C21.5987 215.241 21.0411 215.112 20.6135 215.434C20.2046 215.756 20.0931 216.4 20.3719 216.894C21.3756 218.612 22.4723 220.309 23.6061 221.919C23.792 222.177 24.0522 222.306 24.3125 222.306C24.5169 222.306 24.7214 222.22 24.8887 222.069C25.279 221.704 25.3348 221.039 25.0188 220.609C23.9035 219.042 22.8441 217.388 21.8775 215.735V215.713ZM20.7437 128.658C20.8738 128.723 20.9853 128.744 21.1154 128.744C21.4686 128.744 21.7846 128.508 21.9333 128.143C22.6582 126.318 23.4203 124.471 24.2195 122.603C24.4426 122.087 24.2567 121.465 23.8106 121.207C23.3645 120.949 22.8255 121.164 22.6024 121.679C21.7846 123.569 21.0039 125.437 20.279 127.284C20.0745 127.8 20.279 128.422 20.7251 128.658H20.7437ZM13.5316 193.509C13.4201 192.951 12.9368 192.586 12.4536 192.736C11.9703 192.865 11.6729 193.423 11.7844 193.982C12.1933 196.022 12.6952 198.062 13.2528 200.016C13.3829 200.445 13.7361 200.725 14.1079 200.725C14.2008 200.725 14.2937 200.725 14.3867 200.682C14.8514 200.51 15.1116 199.909 14.9629 199.372C14.4239 197.46 13.9406 195.485 13.5316 193.509ZM19.331 132.416C18.8663 132.202 18.3458 132.459 18.16 132.975C17.4722 134.929 16.8217 136.861 16.2083 138.773C16.041 139.309 16.2826 139.911 16.7473 140.104C16.8402 140.147 16.9518 140.168 17.0633 140.168C17.4351 140.168 17.7882 139.911 17.9183 139.481C18.5131 137.592 19.1451 135.68 19.8329 133.748C20.0187 133.211 19.7957 132.61 19.3496 132.395L19.331 132.416ZM16.8217 205.062C16.6172 204.525 16.0967 204.289 15.6321 204.525C15.1674 204.762 14.9629 205.363 15.1674 205.9C15.8923 207.811 16.6915 209.701 17.5652 211.547C17.7325 211.891 18.0299 212.084 18.3644 212.084C18.5131 212.084 18.6618 212.041 18.7919 211.955C19.2381 211.676 19.3868 211.053 19.1451 210.538C18.3087 208.756 17.528 206.93 16.8217 205.084V205.062ZM28.978 110.363C28.5505 110.062 27.9928 110.234 27.7326 110.749C26.8218 112.575 25.9482 114.378 25.0932 116.161C24.8515 116.676 25.0188 117.299 25.4649 117.578C25.595 117.664 25.7437 117.707 25.8924 117.707C26.2084 117.707 26.5244 117.514 26.6917 117.17C27.5281 115.388 28.4018 113.605 29.294 111.802C29.5542 111.308 29.4055 110.663 28.9594 110.384L28.978 110.363ZM203.181 218.097C201.62 219.106 200.059 220.072 198.497 221.039C198.051 221.318 197.884 221.941 198.125 222.456C198.293 222.8 198.609 223.014 198.925 223.014C199.073 223.014 199.222 222.971 199.352 222.885C200.914 221.919 202.494 220.931 204.073 219.922C204.501 219.643 204.668 218.999 204.427 218.505C204.185 218.011 203.627 217.818 203.2 218.097H203.181ZM184.148 229.242C182.512 230.101 180.895 230.938 179.278 231.754C178.813 231.99 178.608 232.592 178.813 233.128C178.962 233.515 179.296 233.751 179.649 233.751C179.761 233.751 179.891 233.73 180.002 233.665C181.638 232.849 183.274 231.99 184.91 231.131C185.356 230.895 185.56 230.272 185.356 229.757C185.151 229.242 184.612 229.005 184.166 229.242H184.148ZM193.757 223.873C192.159 224.818 190.56 225.72 188.98 226.6C188.534 226.858 188.348 227.481 188.553 227.996C188.701 228.361 189.036 228.576 189.371 228.576C189.501 228.576 189.631 228.533 189.761 228.469C191.36 227.567 192.958 226.665 194.575 225.72C195.021 225.462 195.189 224.84 194.966 224.324C194.742 223.809 194.203 223.594 193.757 223.873ZM154.314 242.534C152.604 243.157 150.894 243.737 149.203 244.295C148.719 244.445 148.441 245.025 148.589 245.583C148.701 246.034 149.073 246.335 149.463 246.335C149.537 246.335 149.63 246.335 149.705 246.292C151.415 245.734 153.125 245.132 154.853 244.51C155.337 244.338 155.597 243.758 155.448 243.2C155.3 242.641 154.798 242.341 154.314 242.513V242.534ZM174.37 234.159C172.716 234.954 171.062 235.705 169.408 236.435C168.943 236.65 168.701 237.251 168.887 237.788C169.017 238.196 169.37 238.454 169.724 238.454C169.835 238.454 169.947 238.433 170.058 238.39C171.712 237.659 173.385 236.886 175.04 236.092C175.504 235.877 175.727 235.254 175.523 234.739C175.337 234.202 174.798 233.944 174.352 234.181L174.37 234.159ZM164.426 238.604C162.735 239.313 161.062 239.979 159.389 240.644C158.924 240.838 158.664 241.417 158.813 241.976C158.943 242.405 159.296 242.684 159.668 242.684C159.761 242.684 159.853 242.684 159.965 242.62C161.656 241.954 163.348 241.289 165.039 240.58C165.504 240.387 165.746 239.785 165.578 239.248C165.411 238.712 164.891 238.433 164.426 238.626V238.604ZM212.419 211.912C210.877 212.986 209.352 214.017 207.828 215.048C207.401 215.327 207.252 215.971 207.494 216.465C207.661 216.808 207.958 216.98 208.274 216.98C208.423 216.98 208.59 216.937 208.72 216.83C210.263 215.799 211.806 214.747 213.349 213.673C213.776 213.373 213.906 212.728 213.665 212.234C213.404 211.741 212.847 211.59 212.419 211.869V211.912ZM230.301 198.448C228.832 199.629 227.364 200.789 225.895 201.949C225.486 202.271 225.375 202.915 225.654 203.409C225.821 203.709 226.118 203.86 226.397 203.86C226.564 203.86 226.75 203.795 226.899 203.688C228.367 202.528 229.854 201.369 231.323 200.166C231.732 199.844 231.825 199.178 231.546 198.706C231.267 198.234 230.691 198.126 230.282 198.448H230.301ZM240.208 191.426C239.91 190.975 239.334 190.868 238.944 191.212C237.513 192.457 236.081 193.66 234.65 194.862C234.241 195.206 234.148 195.85 234.446 196.322C234.632 196.602 234.892 196.752 235.171 196.752C235.356 196.752 235.542 196.687 235.71 196.559C237.141 195.356 238.591 194.132 240.022 192.887C240.412 192.543 240.505 191.877 240.208 191.426ZM221.453 205.363C219.947 206.501 218.46 207.596 216.955 208.691C216.527 208.992 216.397 209.636 216.676 210.13C216.843 210.452 217.141 210.624 217.438 210.624C217.605 210.624 217.773 210.581 217.921 210.474C219.427 209.378 220.932 208.262 222.438 207.124C222.866 206.802 222.977 206.157 222.698 205.685C222.419 205.213 221.862 205.062 221.453 205.384V205.363ZM91.358 252.992C89.5736 252.906 87.8078 252.777 86.042 252.605C85.5215 252.519 85.1126 252.992 85.0754 253.55C85.0383 254.13 85.41 254.624 85.8933 254.667C87.6591 254.838 89.4621 254.967 91.2651 255.053H91.3023C91.7856 255.053 92.1759 254.624 92.2131 254.065C92.2317 253.486 91.8413 252.992 91.358 252.97V252.992ZM100.02 20.1943C100.41 19.8293 100.447 19.1636 100.131 18.7126C99.8154 18.2832 99.2392 18.2187 98.8489 18.5838C97.4734 19.9366 96.1165 21.268 94.7782 22.5994C94.4064 22.9859 94.3507 23.6301 94.6852 24.0811C94.8711 24.3173 95.1128 24.4461 95.373 24.4461C95.5774 24.4461 95.8005 24.3602 95.9678 24.1885C97.3061 22.8571 98.663 21.5257 100.038 20.1729L100.02 20.1943ZM90.7261 26.6794C89.3692 28.0537 88.0309 29.4281 86.7297 30.8024C86.358 31.1889 86.3208 31.8546 86.6554 32.2841C86.8413 32.5203 87.0829 32.6277 87.3245 32.6277C87.5476 32.6277 87.752 32.5418 87.9379 32.37C89.2391 30.9957 90.5774 29.6428 91.9343 28.2685C92.306 27.882 92.3432 27.2377 92.0086 26.7868C91.674 26.3573 91.0978 26.3144 90.7261 26.7009V26.6794ZM144.054 245.905C142.325 246.421 140.597 246.915 138.887 247.387C138.403 247.516 138.106 248.074 138.217 248.633C138.31 249.105 138.682 249.449 139.091 249.449C139.165 249.449 139.221 249.449 139.296 249.427C141.024 248.955 142.771 248.461 144.519 247.945C145.002 247.795 145.299 247.237 145.169 246.678C145.039 246.12 144.537 245.777 144.073 245.927L144.054 245.905ZM101.99 253.078C100.615 253.121 99.2578 253.142 97.9195 253.142H96.6741C96.2094 253.056 95.7633 253.593 95.7633 254.173C95.7633 254.753 96.1537 255.225 96.6555 255.225H97.9195C99.2764 255.225 100.652 255.225 102.046 255.161C102.548 255.161 102.938 254.667 102.92 254.087C102.92 253.507 102.511 253.078 101.99 253.078ZM80.7631 251.961C78.9787 251.703 77.2315 251.403 75.5028 251.081C75.0195 250.995 74.5362 251.36 74.4619 251.94C74.369 252.519 74.7035 253.056 75.2054 253.142C76.9526 253.486 78.737 253.786 80.54 254.044C80.5772 254.044 80.6144 254.044 80.6516 254.044C81.0977 254.044 81.488 253.657 81.5438 253.121C81.5995 252.541 81.2464 252.025 80.7631 251.961ZM82.7706 34.9683C81.4508 36.3856 80.1311 37.8028 78.8486 39.1986C78.4954 39.6066 78.4768 40.2509 78.8114 40.6803C78.9973 40.8951 79.2203 41.0024 79.462 41.0024C79.685 41.0024 79.9081 40.9165 80.0754 40.7233C81.3579 39.3275 82.659 37.9102 83.9788 36.5144C84.3505 36.1279 84.3691 35.4622 84.0345 35.0327C83.6999 34.6032 83.1237 34.5818 82.752 34.9683H82.7706ZM123.199 250.866C121.433 251.166 119.667 251.446 117.92 251.703C117.418 251.768 117.065 252.283 117.139 252.863C117.195 253.4 117.585 253.786 118.031 253.786C118.068 253.786 118.106 253.786 118.143 253.786C119.909 253.55 121.674 253.271 123.477 252.949C123.979 252.863 124.314 252.326 124.24 251.768C124.165 251.188 123.719 250.801 123.217 250.887L123.199 250.866ZM133.682 248.697C131.935 249.105 130.188 249.513 128.44 249.857C127.957 249.964 127.623 250.501 127.715 251.059C127.79 251.574 128.18 251.918 128.608 251.918C128.663 251.918 128.719 251.918 128.775 251.918C130.522 251.553 132.288 251.166 134.054 250.737C134.537 250.63 134.853 250.071 134.76 249.492C134.667 248.933 134.184 248.568 133.701 248.675L133.682 248.697ZM108.384 10.8318C108.068 10.3808 107.492 10.3164 107.12 10.6814C105.726 11.9913 104.332 13.3012 102.975 14.6111C102.585 14.9762 102.529 15.6419 102.864 16.0928C103.05 16.3505 103.31 16.4794 103.57 16.4794C103.775 16.4794 103.979 16.3935 104.146 16.2432C105.503 14.9333 106.879 13.6448 108.273 12.3349C108.663 11.9699 108.719 11.3042 108.403 10.8747L108.384 10.8318ZM112.604 252.348C110.819 252.541 109.053 252.691 107.288 252.798C106.786 252.841 106.414 253.335 106.433 253.894C106.47 254.452 106.86 254.881 107.325 254.881H107.381C109.146 254.753 110.949 254.602 112.752 254.409C113.254 254.366 113.607 253.851 113.57 253.271C113.533 252.691 113.087 252.305 112.585 252.326L112.604 252.348Z" fill="#E61C5D"/>
</svg>
