<svg width="251" height="266" viewBox="0 0 251 266" fill="none" xmlns="http://www.w3.org/2000/svg">
<path d="M50.5768 244.137C50.4281 244.523 50.0935 244.738 49.7589 244.738C49.6288 244.738 49.4987 244.717 49.3872 244.652C47.7329 243.772 46.1158 242.848 44.5358 241.882C44.0897 241.603 43.9224 240.98 44.1641 240.465C44.4057 239.95 44.9447 239.756 45.3909 240.035C46.915 240.98 48.5136 241.904 50.1307 242.763C50.5768 242.999 50.7813 243.622 50.5768 244.137ZM47.4169 81.795C47.7329 81.3441 47.6585 80.6784 47.2682 80.3348C46.8779 79.9698 46.3016 80.0556 46.0042 80.5066C44.8704 82.1386 43.7737 83.7706 42.7142 85.4026C42.4168 85.8536 42.4912 86.5193 42.8815 86.8629C43.0488 87.0132 43.2347 87.0776 43.4206 87.0776C43.6994 87.0776 43.9596 86.9273 44.1455 86.6696C45.205 85.0591 46.3016 83.427 47.4169 81.8165V81.795ZM40.8183 236.965C39.3127 235.869 37.8443 234.71 36.4502 233.529C36.0413 233.185 35.4836 233.293 35.1862 233.744C34.8888 234.216 34.9818 234.86 35.3721 235.204C36.8034 236.428 38.309 237.609 39.8517 238.726C40.0004 238.833 40.1677 238.876 40.335 238.876C40.6324 238.876 40.9298 238.704 41.0971 238.382C41.3573 237.888 41.2458 237.244 40.8183 236.943V236.965ZM34.6286 100.284C34.2197 99.9619 33.6435 100.112 33.3832 100.585C32.3795 102.345 31.413 104.085 30.4836 105.824C30.2233 106.318 30.3535 106.962 30.781 107.263C30.9297 107.37 31.097 107.413 31.2642 107.413C31.5617 107.413 31.8591 107.241 32.0263 106.919C32.9557 105.201 33.9037 103.462 34.8888 101.723C35.1677 101.25 35.0561 100.585 34.6286 100.284ZM28.5133 225.541C28.1601 225.133 27.5839 225.111 27.2307 225.541C26.8776 225.949 26.859 226.614 27.2307 227.022C28.4761 228.504 29.7958 229.943 31.1713 231.317C31.3386 231.489 31.5617 231.575 31.7661 231.575C32.0263 231.575 32.268 231.446 32.4539 231.21C32.7884 230.78 32.7327 230.115 32.3609 229.728C31.0226 228.397 29.7401 226.979 28.5319 225.541H28.5133ZM59.9821 61.6526C58.7554 63.1987 57.5657 64.7234 56.3761 66.248C56.0416 66.6775 56.0787 67.3432 56.4505 67.7297C56.6178 67.9015 56.8408 67.9874 57.0453 67.9874C57.2869 67.9874 57.5472 67.8585 57.7144 67.6438C58.8855 66.1192 60.0751 64.5945 61.2833 63.0699C61.6178 62.6404 61.5993 61.9747 61.2275 61.5882C60.8558 61.2017 60.2795 61.2231 59.945 61.6526H59.9821ZM70.2611 250.321C68.5139 249.892 66.7852 249.398 65.0937 248.883C64.6105 248.711 64.1086 249.076 63.9785 249.613C63.8484 250.171 64.1458 250.751 64.629 250.88C66.3391 251.417 68.1049 251.889 69.8708 252.34C69.9265 252.34 70.0009 252.361 70.0566 252.361C70.4656 252.361 70.8559 252.018 70.9488 251.545C71.0604 250.987 70.7444 250.429 70.2611 250.3V250.321ZM54.127 70.8219C53.7553 70.4569 53.1791 70.4998 52.8445 70.9293C51.6735 72.5184 50.521 74.1074 49.3872 75.675C49.0712 76.1259 49.127 76.7702 49.4987 77.1567C49.666 77.307 49.8705 77.3929 50.0749 77.3929C50.3352 77.3929 50.5954 77.2641 50.7813 77.0064C51.8965 75.4388 53.049 73.8712 54.22 72.2821C54.536 71.8527 54.4988 71.187 54.127 70.8005V70.8219ZM76.2277 43.9153C75.8746 43.5073 75.2983 43.4858 74.9452 43.8938C73.644 45.354 72.3801 46.7928 71.1161 48.2315C70.763 48.6395 70.763 49.3052 71.1161 49.7132C71.2834 49.9279 71.5251 50.0138 71.7481 50.0138C71.9712 50.0138 72.2128 49.9065 72.3801 49.7132C73.6255 48.2744 74.8894 46.8357 76.1905 45.397C76.5437 44.989 76.5623 44.3233 76.2091 43.9153H76.2277ZM60.0193 247.165C58.3092 246.521 56.6364 245.833 55.0192 245.125C54.5545 244.91 54.0341 245.189 53.8482 245.726C53.6623 246.263 53.904 246.864 54.3687 247.079C56.0044 247.809 57.7144 248.518 59.4617 249.162C59.5546 249.205 59.6476 249.205 59.7405 249.205C60.1308 249.205 60.484 248.926 60.5955 248.475C60.7442 247.916 60.484 247.337 60.0193 247.165ZM64.9636 58.5604C66.1718 57.0787 67.3986 55.597 68.6626 54.1153C69.0157 53.7073 68.9971 53.0416 68.6626 52.6336C68.3094 52.2256 67.7332 52.2471 67.38 52.6336C66.1161 54.1368 64.8707 55.6185 63.6625 57.1002C63.3279 57.5296 63.3279 58.1739 63.6997 58.5819C63.867 58.7751 64.09 58.861 64.3131 58.861C64.5547 58.861 64.7963 58.7537 64.9636 58.5389V58.5604ZM10.9108 176.795C11.4127 176.795 11.803 176.344 11.8216 175.764C11.8216 173.746 11.9145 171.706 12.0446 169.666C12.0818 169.086 11.7101 168.592 11.2082 168.549C10.7249 168.528 10.2788 168.936 10.2416 169.515C10.0929 171.598 10.0186 173.703 10 175.764C10 176.344 10.3903 176.817 10.8922 176.817L10.9108 176.795ZM12.5279 187.919C12.2677 185.943 12.0818 183.903 11.9703 181.863C11.9331 181.283 11.5056 180.854 11.0037 180.897C10.5019 180.94 10.1301 181.433 10.1673 182.013C10.2788 184.096 10.4833 186.201 10.7435 188.241C10.8179 188.756 11.1896 189.143 11.6357 189.143C11.6729 189.143 11.7286 189.143 11.7658 189.143C12.2677 189.057 12.6023 188.52 12.5279 187.961V187.919ZM11.6171 164.469C11.6171 164.469 11.7101 164.469 11.7472 164.469C12.1933 164.469 12.5837 164.083 12.6394 163.567C12.8811 161.592 13.1785 159.552 13.5316 157.533C13.6246 156.975 13.3086 156.416 12.8253 156.309C12.342 156.202 11.8588 156.567 11.7658 157.125C11.4127 159.187 11.0967 161.248 10.855 163.267C10.7807 163.846 11.1338 164.362 11.6171 164.448V164.469ZM13.6246 152.336C13.6246 152.336 13.7733 152.379 13.8476 152.379C14.2566 152.379 14.6097 152.057 14.7213 151.606C15.1488 149.674 15.6506 147.677 16.1897 145.723C16.3384 145.164 16.0782 144.584 15.5949 144.413C15.1116 144.241 14.6097 144.541 14.461 145.1C13.922 147.097 13.4201 149.115 12.974 151.091C12.8439 151.649 13.1413 152.229 13.6246 152.358V152.336ZM37.1379 97.0629C37.4168 97.0629 37.7142 96.9126 37.8814 96.6119C38.8852 94.9585 39.9075 93.2835 40.967 91.5871C41.2644 91.1147 41.1715 90.4704 40.7625 90.1269C40.3536 89.7833 39.796 89.8907 39.4986 90.3631C38.4205 92.0595 37.3982 93.7345 36.3944 95.4309C36.1156 95.9033 36.2086 96.5475 36.6175 96.8911C36.7662 97.02 36.9521 97.0844 37.1379 97.0844V97.0629ZM21.8775 216.114C21.5987 215.641 21.0411 215.512 20.6135 215.834C20.2046 216.157 20.0931 216.801 20.3719 217.295C21.3756 219.013 22.4723 220.709 23.6061 222.32C23.792 222.577 24.0522 222.706 24.3125 222.706C24.5169 222.706 24.7214 222.62 24.8887 222.47C25.279 222.105 25.3348 221.439 25.0188 221.01C23.9035 219.442 22.8441 217.789 21.8775 216.135V216.114ZM20.7437 129.059C20.8738 129.123 20.9853 129.145 21.1154 129.145C21.4686 129.145 21.7846 128.909 21.9333 128.543C22.6582 126.718 23.4203 124.871 24.2195 123.003C24.4426 122.488 24.2567 121.865 23.8106 121.607C23.3645 121.35 22.8255 121.564 22.6024 122.08C21.7846 123.97 21.0039 125.838 20.279 127.685C20.0745 128.2 20.279 128.823 20.7251 129.059H20.7437ZM13.5316 193.91C13.4201 193.351 12.9368 192.986 12.4536 193.137C11.9703 193.266 11.6729 193.824 11.7844 194.382C12.1933 196.422 12.6952 198.462 13.2528 200.416C13.3829 200.846 13.7361 201.125 14.1079 201.125C14.2008 201.125 14.2937 201.125 14.3867 201.082C14.8514 200.91 15.1116 200.309 14.9629 199.772C14.4239 197.861 13.9406 195.885 13.5316 193.91ZM19.331 132.817C18.8663 132.602 18.3458 132.86 18.16 133.375C17.4722 135.329 16.8217 137.262 16.2083 139.173C16.041 139.71 16.2826 140.311 16.7473 140.504C16.8402 140.547 16.9518 140.569 17.0633 140.569C17.4351 140.569 17.7882 140.311 17.9183 139.882C18.5131 137.992 19.1451 136.081 19.8329 134.148C20.0187 133.611 19.7957 133.01 19.3496 132.795L19.331 132.817ZM16.8217 205.463C16.6172 204.926 16.0967 204.69 15.6321 204.926C15.1674 205.162 14.9629 205.763 15.1674 206.3C15.8923 208.211 16.6915 210.101 17.5652 211.948C17.7325 212.291 18.0299 212.485 18.3644 212.485C18.5131 212.485 18.6618 212.442 18.7919 212.356C19.2381 212.077 19.3868 211.454 19.1451 210.938C18.3087 209.156 17.528 207.331 16.8217 205.484V205.463ZM28.978 110.763C28.5505 110.463 27.9928 110.634 27.7326 111.15C26.8218 112.975 25.9482 114.779 25.0932 116.561C24.8515 117.076 25.0188 117.699 25.4649 117.978C25.595 118.064 25.7437 118.107 25.8924 118.107C26.2084 118.107 26.5244 117.914 26.6917 117.57C27.5281 115.788 28.4018 114.006 29.294 112.202C29.5542 111.708 29.4055 111.064 28.9594 110.785L28.978 110.763ZM203.181 218.497C201.62 219.506 200.059 220.473 198.497 221.439C198.051 221.718 197.884 222.341 198.125 222.856C198.293 223.2 198.609 223.415 198.925 223.415C199.073 223.415 199.222 223.372 199.352 223.286C200.914 222.32 202.493 221.332 204.073 220.322C204.501 220.043 204.668 219.399 204.427 218.905C204.185 218.411 203.627 218.218 203.2 218.497H203.181ZM184.148 229.642C182.512 230.501 180.895 231.339 179.278 232.155C178.813 232.391 178.608 232.992 178.813 233.529C178.962 233.915 179.296 234.152 179.649 234.152C179.761 234.152 179.891 234.13 180.002 234.066C181.638 233.25 183.274 232.391 184.91 231.532C185.356 231.296 185.56 230.673 185.356 230.157C185.151 229.642 184.612 229.406 184.166 229.642H184.148ZM193.757 224.274C192.159 225.218 190.56 226.12 188.98 227.001C188.534 227.259 188.348 227.881 188.553 228.397C188.701 228.762 189.036 228.976 189.371 228.976C189.501 228.976 189.631 228.933 189.761 228.869C191.359 227.967 192.958 227.065 194.575 226.12C195.021 225.863 195.189 225.24 194.966 224.725C194.742 224.209 194.203 223.994 193.757 224.274ZM154.314 242.934C152.604 243.557 150.894 244.137 149.203 244.695C148.719 244.846 148.441 245.425 148.589 245.984C148.701 246.435 149.073 246.735 149.463 246.735C149.537 246.735 149.63 246.735 149.705 246.692C151.415 246.134 153.125 245.533 154.853 244.91C155.337 244.738 155.597 244.158 155.448 243.6C155.299 243.042 154.798 242.741 154.314 242.913V242.934ZM174.37 234.56C172.716 235.354 171.062 236.106 169.408 236.836C168.943 237.051 168.701 237.652 168.887 238.189C169.017 238.597 169.37 238.854 169.724 238.854C169.835 238.854 169.947 238.833 170.058 238.79C171.712 238.06 173.385 237.287 175.04 236.492C175.504 236.277 175.727 235.655 175.523 235.139C175.337 234.603 174.798 234.345 174.352 234.581L174.37 234.56ZM164.426 239.005C162.735 239.713 161.062 240.379 159.389 241.045C158.924 241.238 158.664 241.818 158.813 242.376C158.943 242.806 159.296 243.085 159.668 243.085C159.761 243.085 159.853 243.085 159.965 243.02C161.656 242.355 163.348 241.689 165.039 240.98C165.504 240.787 165.746 240.186 165.578 239.649C165.411 239.112 164.891 238.833 164.426 239.026V239.005ZM212.419 212.313C210.877 213.386 209.352 214.417 207.828 215.448C207.401 215.727 207.252 216.371 207.494 216.865C207.661 217.209 207.958 217.381 208.274 217.381C208.423 217.381 208.59 217.338 208.72 217.23C210.263 216.199 211.806 215.147 213.349 214.074C213.776 213.773 213.906 213.129 213.665 212.635C213.404 212.141 212.847 211.991 212.419 212.27V212.313ZM230.301 198.849C228.832 200.03 227.364 201.189 225.895 202.349C225.486 202.671 225.375 203.315 225.654 203.809C225.821 204.11 226.118 204.26 226.397 204.26C226.564 204.26 226.75 204.196 226.899 204.088C228.367 202.929 229.854 201.769 231.323 200.567C231.732 200.244 231.825 199.579 231.546 199.106C231.267 198.634 230.691 198.527 230.282 198.849H230.301ZM240.208 191.827C239.91 191.376 239.334 191.268 238.944 191.612C237.513 192.857 236.081 194.06 234.65 195.263C234.241 195.606 234.148 196.25 234.446 196.723C234.632 197.002 234.892 197.152 235.171 197.152C235.356 197.152 235.542 197.088 235.71 196.959C237.141 195.756 238.591 194.532 240.022 193.287C240.412 192.943 240.505 192.278 240.208 191.827ZM221.453 205.763C219.947 206.901 218.46 207.997 216.955 209.092C216.527 209.392 216.397 210.037 216.676 210.53C216.843 210.853 217.141 211.024 217.438 211.024C217.605 211.024 217.773 210.981 217.921 210.874C219.427 209.779 220.932 208.662 222.438 207.524C222.866 207.202 222.977 206.558 222.698 206.085C222.419 205.613 221.862 205.463 221.453 205.785V205.763ZM91.358 253.392C89.5736 253.306 87.8078 253.177 86.042 253.006C85.5215 252.92 85.1126 253.392 85.0754 253.95C85.0383 254.53 85.41 255.024 85.8933 255.067C87.6591 255.239 89.4621 255.368 91.2651 255.454H91.3023C91.7856 255.454 92.1759 255.024 92.2131 254.466C92.2317 253.886 91.8413 253.392 91.358 253.371V253.392ZM100.02 20.5947C100.41 20.2297 100.447 19.564 100.131 19.113C99.8154 18.6836 99.2392 18.6191 98.8489 18.9842C97.4734 20.337 96.1165 21.6684 94.7782 22.9998C94.4064 23.3863 94.3507 24.0305 94.6852 24.4815C94.8711 24.7177 95.1127 24.8465 95.373 24.8465C95.5774 24.8465 95.8005 24.7606 95.9678 24.5888C97.3061 23.2575 98.663 21.9261 100.038 20.5733L100.02 20.5947ZM90.7261 27.0798C89.3692 28.4541 88.0309 29.8285 86.7297 31.2028C86.358 31.5893 86.3208 32.255 86.6554 32.6845C86.8413 32.9207 87.0829 33.028 87.3245 33.028C87.5476 33.028 87.7521 32.9422 87.9379 32.7704C89.2391 31.396 90.5774 30.0432 91.9343 28.6689C92.306 28.2823 92.3432 27.6381 92.0086 27.1872C91.674 26.7577 91.0978 26.7148 90.7261 27.1013V27.0798ZM144.054 246.306C142.325 246.821 140.597 247.315 138.887 247.787C138.403 247.916 138.106 248.475 138.217 249.033C138.31 249.505 138.682 249.849 139.091 249.849C139.165 249.849 139.221 249.849 139.296 249.827C141.024 249.355 142.771 248.861 144.519 248.346C145.002 248.195 145.299 247.637 145.169 247.079C145.039 246.521 144.537 246.177 144.073 246.327L144.054 246.306ZM101.99 253.478C100.615 253.521 99.2578 253.542 97.9195 253.542H96.6741C96.2094 253.457 95.7633 253.993 95.7633 254.573C95.7633 255.153 96.1537 255.625 96.6555 255.625H97.9195C99.2764 255.625 100.652 255.625 102.046 255.561C102.548 255.561 102.938 255.067 102.92 254.487C102.92 253.907 102.511 253.478 101.99 253.478ZM80.7631 252.361C78.9787 252.104 77.2315 251.803 75.5028 251.481C75.0195 251.395 74.5362 251.76 74.4619 252.34C74.369 252.92 74.7035 253.457 75.2054 253.542C76.9526 253.886 78.7371 254.187 80.54 254.444C80.5772 254.444 80.6144 254.444 80.6516 254.444C81.0977 254.444 81.488 254.058 81.5438 253.521C81.5995 252.941 81.2464 252.426 80.7631 252.361ZM82.7706 35.3687C81.4508 36.786 80.1311 38.2032 78.8486 39.599C78.4954 40.007 78.4768 40.6512 78.8114 41.0807C78.9973 41.2955 79.2203 41.4028 79.462 41.4028C79.685 41.4028 79.9081 41.3169 80.0754 41.1237C81.3579 39.7279 82.659 38.3106 83.9788 36.9148C84.3505 36.5283 84.3691 35.8626 84.0345 35.4331C83.7 35.0036 83.1237 34.9822 82.752 35.3687H82.7706ZM123.199 251.266C121.433 251.567 119.667 251.846 117.92 252.104C117.418 252.168 117.065 252.683 117.139 253.263C117.195 253.8 117.585 254.187 118.031 254.187C118.068 254.187 118.106 254.187 118.143 254.187C119.909 253.95 121.674 253.671 123.477 253.349C123.979 253.263 124.314 252.726 124.24 252.168C124.165 251.588 123.719 251.202 123.217 251.288L123.199 251.266ZM133.682 249.097C131.935 249.505 130.188 249.913 128.44 250.257C127.957 250.364 127.623 250.901 127.715 251.459C127.79 251.975 128.18 252.318 128.608 252.318C128.663 252.318 128.719 252.318 128.775 252.318C130.522 251.953 132.288 251.567 134.054 251.137C134.537 251.03 134.853 250.472 134.76 249.892C134.667 249.334 134.184 248.969 133.701 249.076L133.682 249.097ZM108.384 11.2322C108.068 10.7812 107.492 10.7168 107.12 11.0818C105.726 12.3917 104.332 13.7016 102.975 15.0115C102.585 15.3766 102.529 16.0423 102.864 16.4932C103.05 16.7509 103.31 16.8798 103.57 16.8798C103.775 16.8798 103.979 16.7939 104.146 16.6435C105.503 15.3336 106.879 14.0452 108.273 12.7353C108.663 12.3703 108.719 11.7046 108.403 11.2751L108.384 11.2322ZM112.604 252.748C110.819 252.941 109.053 253.091 107.288 253.199C106.786 253.242 106.414 253.736 106.433 254.294C106.47 254.852 106.86 255.282 107.325 255.282H107.381C109.146 255.153 110.949 255.003 112.752 254.809C113.254 254.766 113.607 254.251 113.57 253.671C113.533 253.091 113.087 252.705 112.585 252.726L112.604 252.748Z" fill="#E61C5D"/>
</svg>
