<svg width="194" height="136" viewBox="0 0 194 136" fill="none" xmlns="http://www.w3.org/2000/svg">
<g id="ilus_monumentos">
<path id="Vector" fill-rule="evenodd" clip-rule="evenodd" d="M159.376 84.0289V85.6955V99.2273V100.336V102.556V124.831V132.326L156.671 136.001H164.234H175.822H185.882L183.663 132.326H183.594V103.111L185.051 99.0874H179.847H181.511H183.524C184.009 93.1896 189.005 88.4712 194.972 88.4712C201.078 88.4712 206.006 93.1896 206.491 99.0874H208.504H210.238H204.965L206.423 103.111V132.326H206.353L203.716 136.001H214.056H225.226H232.86L230.708 132.326V124.831V102.556V100.336V99.2273V85.6955V84.0289V79.2425V78.6168L237.022 73.6904H237.23V73.4816V73.2047H230.708V68.4167V67.1005V65.9891V65.2266H159.376V65.9891V67.1005V68.4167V73.2047H152.785V73.3447V73.6904H153.131L159.376 78.6168V79.2425V84.0289Z" fill="#E61C5D"/>
<path id="Vector_2" fill-rule="evenodd" clip-rule="evenodd" d="M157.363 94.4387V102.07V102.696V103.319H156.878V116.086V116.919V121.709V122.54V133.99V135.447V136H73.4056V135.447V133.99V122.54V121.709V116.919V116.086V103.319H72.5023V102.695V102.07V94.438V93.3978H73.6816V86.2502V68.9018V67.792V52.2494V51.1365V19.2896H72.0173V17.2069H75.3475V14.0848H76.5277V13.115H76.8742L78.1928 10.7554L79.5802 8.25665L80.8988 10.7554L82.2182 13.115H82.5655V14.0848H102.271V17.2069H105.671V19.2896H103.798V51.1365V52.2494V53.0824H111.985L113.305 43.1576L113.583 40.5219V26.3668H111.362V24.6306H113.583V22.7567H115.456V24.6306H117.676V26.3668H115.456V40.1747L115.872 43.1568L117.19 53.0816H126.419V52.2487V51.1357V19.2889H124.753V17.2061H128.085V14.084H147.375V13.1142H147.722L149.04 10.7547L150.358 8.25586L151.746 10.7547L152.995 13.1142H153.411V14.084H155.008V17.2061H158.407V19.2889H156.535V51.1357V52.2487V67.7912V68.901V86.2494V93.397H157.367V94.4387H157.363ZM126.417 56.2053H117.118V62.035L117.674 62.9344L120.865 67.9328H126.417V67.7928V56.2053ZM111.983 56.2053H103.795V67.7928V67.9328H108.237L111.36 62.9344L111.983 62.035V56.2053ZM124.959 81.7399C124.682 76.7439 120.796 72.7896 115.869 72.4431C120.796 72.7888 124.682 76.8135 124.959 81.7399ZM78.6784 68.6265H98.8009V67.7936V53.3608H78.6784V67.7936V68.6265ZM85.894 55.79C85.2011 55.79 84.5762 56.2053 84.5762 56.6894V67.0295H87.2127V56.6894C87.2119 56.2053 86.6574 55.79 85.894 55.79ZM91.0981 55.79C90.4044 55.79 89.7795 56.2053 89.7795 56.6894V67.0295H92.4159V56.6894C92.4159 56.2053 91.8614 55.79 91.0981 55.79ZM82.9104 73.6913H80.2043V70.9853H82.9104V73.6913ZM97.1351 73.6913H94.3602V70.9853H97.1351V73.6913ZM138.629 55.79C137.935 55.79 137.311 56.2053 137.311 56.6894V67.0295H139.948V56.6894C139.948 56.2053 139.392 55.79 138.629 55.79ZM143.834 55.79C143.139 55.79 142.584 56.2053 142.584 56.6894V67.0295H145.152V56.6894C145.152 56.2053 144.597 55.79 143.834 55.79ZM135.646 73.6913H132.939V70.9853H135.646V73.6913ZM149.871 73.6913H147.164V70.9853H149.871V73.6913ZM78.4688 133.99H80.342V115.671C80.342 110.051 88.5993 105.471 88.5993 105.471C88.5993 105.471 96.8574 110.051 96.8574 115.671V133.99H99.5635V122.54V121.709V116.919V116.086V103.319H78.4688V116.086V116.918V121.708V122.539V133.99ZM104.629 133.99H106.779V115.671C106.779 110.051 115.037 105.471 115.037 105.471C115.037 105.471 123.295 110.051 123.295 115.671V133.99H125.654V122.54V121.709V116.919V116.086V103.319H104.629V116.086V116.918V121.708V122.539V133.99ZM130.788 133.99H133.147V115.671C133.147 110.051 141.405 105.471 141.405 105.471C141.405 105.471 149.662 110.051 149.662 115.671V133.99H151.743V122.54V121.709V116.919V116.086V103.319H130.789V116.086V116.918V121.708V122.539L130.788 133.99Z" fill="#E61C5D"/>
<path id="Vector_3" fill-rule="evenodd" clip-rule="evenodd" d="M13.2436 22.5517L14.3542 32.959L51.1986 28.9351L50.0896 18.527L13.2436 22.5517ZM42.5956 117.544C23.3748 117.544 6.79054 125.177 0.061399 136H85.2698C78.3999 125.177 61.8859 117.544 42.5956 117.544ZM58.9703 89.4418L19.8359 93.7449L20.0431 96.1037L59.2487 91.8014L58.9703 89.4418ZM43.8446 2.08116L15.6728 5.13445L15.4647 3.05408L43.6373 0L43.8446 2.08116ZM50.8522 14.9873L11.6473 19.22L11.925 21.6484L51.0602 17.3461L50.8522 14.9873ZM52.4484 29.8361L13.3132 34.1392L13.5212 36.5692L52.7268 32.2661L52.4484 29.8361ZM54.0447 44.7553L14.9087 49.0576L15.1863 51.4164L54.3215 47.1853L54.0447 44.7553ZM55.7097 59.6057L16.5057 63.9065L16.8522 66.3349L55.9874 62.0341L55.7097 59.6057ZM57.306 74.5226L18.1708 78.8257L18.4484 81.2541L57.5829 76.9494L57.306 74.5226ZM19.3502 17.6933L18.0316 5.76012L41.6931 3.19172L43.0117 15.1249L19.3502 17.6933ZM35.448 9.0895L35.8657 13.3222L39.9592 12.9069L39.5415 8.67342C39.4023 7.4948 38.3629 6.5915 37.2531 6.72993C36.1425 6.86914 35.3088 7.91011 35.448 9.0895ZM21.3625 10.6865L21.8482 14.9177L25.9417 14.432L25.4568 10.2009C25.316 9.01989 24.2766 8.18774 23.1668 8.32617C22.0562 8.39578 21.2233 9.43518 21.3625 10.6865ZM28.3709 9.92165L28.8557 14.1551L32.9492 13.6694L32.4643 9.43597C32.3947 8.25735 31.3545 7.35403 30.1744 7.56441C29.0638 7.63402 28.3012 8.67343 28.3709 9.92165ZM46.2738 21.0266L47.0355 27.8934L49.4647 27.6165L48.7022 20.7474C48.6318 20.1921 48.0773 19.776 47.3836 19.8441C46.6891 19.9137 46.2042 20.4009 46.2738 21.0266ZM22.4723 84.5147L23.3052 91.3853L25.6648 91.1069L24.9015 84.2378C24.8319 83.6817 24.2774 83.2672 23.5829 83.3353C22.9588 83.4745 22.4723 83.9609 22.4723 84.5147ZM25.8728 84.0978L26.6354 91.0389L29.063 90.7597L28.3005 83.8913C28.2316 83.3353 27.6756 82.92 26.9826 82.9896C26.2897 83.0584 25.8032 83.6145 25.8728 84.0978ZM29.2726 83.8209L30.0359 90.6228L32.3955 90.4132L31.701 83.4745C31.6314 82.9192 31.0081 82.5711 30.3136 82.6415C29.6895 82.7119 29.2038 83.1984 29.2726 83.8209ZM32.6028 83.4049L33.3677 90.2716L35.7953 89.9948L35.0319 83.128C34.9623 82.5704 34.4071 82.2239 33.7141 82.2239C33.0196 82.3639 32.5347 82.8511 32.6028 83.4049ZM36.0041 82.9888L36.7666 89.926L39.1262 89.6491L38.4333 82.7815C38.3637 82.2247 37.7388 81.8086 37.1139 81.8782C36.4202 81.9478 35.9345 82.5008 36.0041 82.9888ZM39.3343 82.7119L40.0976 89.5099L42.5268 89.3018L41.8323 82.3631C41.7627 81.8078 41.1393 81.4621 40.444 81.531C39.7511 81.6006 39.2646 82.0855 39.3343 82.7119ZM42.7348 82.2943L43.4966 89.1634L45.9257 88.8865L45.1632 82.0855C45.0944 81.4621 44.4695 81.1149 43.8454 81.1149C43.1501 81.2541 42.6652 81.739 42.7348 82.2943ZM46.1346 81.9478L46.8283 88.8162L49.3263 88.5401L48.5622 81.6686C48.4926 81.1149 47.8685 80.6996 47.1748 80.7692C46.5506 80.838 46.0642 81.3918 46.1346 81.9478ZM49.4647 81.6006L50.228 88.4705L52.6572 88.1936L51.8939 81.3229C51.8243 80.7692 51.1994 80.3531 50.5753 80.4235C49.9496 80.4923 49.3951 80.9765 49.4647 81.6006ZM52.8653 81.1853L53.5582 88.0536L56.0554 87.7752L55.2929 80.9765C55.2241 80.3524 54.668 80.0059 53.9751 80.0059C53.2813 80.1459 52.7957 80.6292 52.8653 81.1853ZM20.8768 69.4578L21.5713 76.3269L24.0686 76.0501L23.306 69.1786C23.2364 68.6256 22.6811 68.2784 21.9874 68.2784C21.2929 68.4168 20.808 68.9017 20.8768 69.4578ZM24.2078 69.1113L25.0399 75.9796L27.3995 75.7028L26.6362 68.8321C26.5666 68.2784 26.0121 67.8631 25.3168 67.9327C24.6934 68 24.2078 68.5552 24.2078 69.1113ZM27.6075 68.7625L28.3709 75.634L30.8001 75.3563L30.0359 68.416C29.9671 67.9319 29.4126 67.5158 28.7181 67.5855C28.0244 67.6543 27.5379 68.1399 27.6075 68.7625ZM30.9385 68.3488L31.7698 75.2171L34.1294 75.0106L33.4365 68.1399C33.2981 67.5158 32.7428 67.1694 32.049 67.1694C31.4234 67.307 30.9385 67.7927 30.9385 68.3488ZM34.3374 68L35.1023 74.8707L37.53 74.5906L36.7659 67.7231C36.6963 67.1694 36.1417 66.7517 35.4472 66.8198C34.7543 66.8886 34.2686 67.4462 34.3374 68ZM37.738 67.6543L38.5013 74.5226L40.8601 74.2442L40.1672 67.307C40.0976 66.8198 39.4719 66.4037 38.8486 66.4741C38.1541 66.5429 37.6684 67.0286 37.738 67.6543ZM41.0689 67.239L41.8323 74.1066L44.2614 73.8977L43.4966 67.0286C43.4966 66.4029 42.874 66.0564 42.1787 66.0564C41.485 66.1964 41.0009 66.6821 41.0689 67.239ZM44.4695 66.8886L45.2328 73.7593L47.5924 73.4817L46.8979 66.6117C46.8291 66.0564 46.205 65.6404 45.5801 65.7804C44.8856 65.7796 44.3991 66.3349 44.4695 66.8886ZM47.8685 66.5429L48.5622 73.4136L51.0602 73.1352L50.2977 66.1965C50.228 65.7108 49.6032 65.2947 48.9102 65.3643C48.2845 65.4339 47.7308 65.9196 47.8685 66.5429ZM51.1994 66.126L51.9627 72.9983L54.3919 72.7879L53.6286 65.9196C53.559 65.2939 52.9341 64.9482 52.3092 64.9482C51.6859 65.0867 51.129 65.5723 51.1994 66.126ZM19.2117 54.4009L19.9743 61.27L22.4027 61.0612L21.6402 54.124C21.5713 53.5664 21.0161 53.2199 20.3223 53.2895C19.6967 53.3599 19.1421 53.8456 19.2117 54.4009ZM22.6107 54.0521L23.306 60.9228L25.8032 60.6451L25.0399 53.7752C24.9703 53.2199 24.347 52.8039 23.7213 52.8742C23.0284 52.9431 22.5427 53.4968 22.6107 54.0521ZM25.9417 53.7064L26.7042 60.5755L29.1334 60.2987L28.3709 53.4295C28.3012 52.8743 27.746 52.4582 27.053 52.5278C26.4274 52.5974 25.9417 53.0831 25.9417 53.7064ZM29.3422 53.2895L30.1048 60.1602L32.5339 59.9514L31.7691 53.0831C31.7002 52.4574 31.1457 52.1117 30.4512 52.1805C29.7591 52.2501 29.2726 52.7343 29.3422 53.2895ZM32.6732 52.9431L33.5069 59.8122L35.8665 59.5354L35.1712 52.6654C35.0327 52.1109 34.4775 51.6941 33.7837 51.7637C33.1596 51.8341 32.6732 52.3878 32.6732 52.9431ZM36.0737 52.5974L36.8362 59.4657L39.2647 59.1873L38.5021 52.3205C38.4333 51.7645 37.8772 51.3468 37.1843 51.4172C36.489 51.486 36.0041 52.0413 36.0737 52.5974ZM39.4727 52.2502L40.2368 59.0481L42.5964 58.8409L41.9027 51.9733C41.8331 51.346 41.2089 51.0004 40.5144 51.07C39.8895 51.1372 39.4031 51.6253 39.4727 52.2502ZM42.8036 51.8341L43.5669 58.7009L45.9953 58.424L45.2328 51.5572C45.2328 50.9996 44.6079 50.5827 43.9142 50.7227C43.2197 50.7908 42.7348 51.2764 42.8036 51.8341ZM46.2042 51.486L46.9667 58.3552L49.3263 58.0783L48.631 51.2076C48.5622 50.6539 47.9381 50.2378 47.3132 50.3074C46.6202 50.3747 46.1346 50.9307 46.2042 51.486ZM49.5343 51.1372L50.2977 57.9391L52.7957 57.7319L52.0323 50.8604C51.9627 50.237 51.3394 49.8914 50.6449 49.961C49.9496 50.0282 49.4647 50.5147 49.5343 51.1372ZM17.6163 39.4129L18.3092 46.2108L20.7384 46.0036L19.9751 39.0664C19.9751 38.5087 19.351 38.1631 18.7261 38.2303C18.0324 38.3007 17.4771 38.7887 17.6163 39.4129ZM20.9464 38.9976L21.7098 45.8643L24.139 45.5883L23.3741 38.7887C23.3052 38.1639 22.75 37.8174 22.0555 37.8174C21.4313 37.9542 20.8768 38.4399 20.9464 38.9976ZM24.347 38.5815L25.0399 45.5186L27.5379 45.241L26.705 38.3703C26.705 37.8166 26.0817 37.4005 25.4576 37.5382C24.7623 37.5382 24.2774 38.0942 24.347 38.5815ZM27.6764 38.3007L28.4412 45.1722L30.8689 44.8953L30.1056 37.9542C30.0359 37.4686 29.4814 37.0548 28.7877 37.1229C28.1628 37.1917 27.6764 37.6782 27.6764 38.3007ZM31.0769 37.8846L31.8394 44.7553L34.2686 44.4793L33.5061 37.6782C33.4365 37.0548 32.8812 36.7076 32.1875 36.7076C31.493 36.8452 31.0081 37.3309 31.0769 37.8846ZM34.4071 37.5382L35.24 44.4096L37.5996 44.132L36.9051 37.2605C36.7666 36.7068 36.2121 36.2915 35.5169 36.4292C34.8935 36.4292 34.4071 36.9845 34.4071 37.5382ZM37.8084 37.1917L38.5717 44.0632L41.0009 43.784L40.236 36.9148C40.1672 36.3596 39.6111 35.945 38.9174 36.0131C38.2229 36.0827 37.738 36.5692 37.8084 37.1917ZM41.2074 36.7748L41.9699 43.644L44.3295 43.3663L43.6366 36.5692C43.4958 35.945 42.9413 35.5947 42.2476 35.5947C41.6234 35.7339 41.1385 36.2211 41.2074 36.7748ZM44.5375 36.4292L45.3016 43.296L47.7308 43.0199L46.9667 36.1515C46.8971 35.5939 46.3426 35.1786 45.6481 35.3178C44.9552 35.3178 44.4695 35.8715 44.5375 36.4292ZM47.9389 36.0827L48.7022 42.9503L51.061 42.6734L50.368 35.8043C50.2984 35.249 49.6728 34.8329 49.0486 34.9033C48.3549 34.9721 47.8685 35.4578 47.9389 36.0827ZM15.9496 24.3552L16.7145 31.2267L19.1422 30.9483L18.3788 24.0095C18.3092 23.5238 17.6859 23.1078 16.9914 23.1766C16.3673 23.2462 15.8808 23.7326 15.9496 24.3552ZM19.3502 23.9383L20.0431 30.8098L22.4723 30.5986L21.7098 23.7319C21.7098 23.1062 21.0849 22.7574 20.46 22.7574C19.7663 22.8974 19.2118 23.3846 19.3502 23.9383ZM22.6803 23.5927L23.4437 30.4602L25.8728 30.1833L25.1095 23.315C25.0399 22.7574 24.4854 22.3421 23.7901 22.4813C23.0972 22.4813 22.6107 23.0389 22.6803 23.5927ZM26.0809 23.2462L26.7746 30.1137L29.2718 29.8369L28.4405 22.9662C28.4405 22.4125 27.8148 21.9964 27.1907 22.0668C26.4962 22.1356 25.9417 22.6197 26.0809 23.2462ZM29.4126 22.8278L30.1751 29.6969L32.6028 29.4896L31.8394 22.6189C31.7698 21.9948 31.2153 21.6484 30.5208 21.6484C29.8967 21.7884 29.4126 22.2725 29.4126 22.8278ZM32.8116 22.4813L33.5749 29.3504L36.0041 29.0743L35.2408 22.2029C35.1712 21.6492 34.6167 21.2331 33.9222 21.3723C33.2285 21.3723 32.7428 21.926 32.8116 22.4813ZM36.1425 22.1356L36.9051 29.0047L39.3343 28.7279L38.5717 21.8572C38.5021 21.3035 37.9468 20.8874 37.2531 20.957C36.6282 21.0266 36.1425 21.5099 36.1425 22.1356ZM39.5415 21.718L40.3056 28.5871L42.7348 28.3806L41.9699 21.5092C41.9011 20.8858 41.3466 20.5401 40.6513 20.609C39.9592 20.6794 39.4727 21.1635 39.5415 21.718ZM42.8732 21.3723L43.7062 28.2414L46.0634 27.9638L45.3705 21.0939C45.232 20.5409 44.676 20.1225 43.983 20.2601C43.3581 20.2594 42.8732 20.817 42.8732 21.3723ZM14.8398 37.4686L15.9496 47.8086L52.7957 43.784L51.6859 33.4455L14.8398 37.4686ZM16.4361 52.3878L17.6163 62.7278L54.4615 58.7016L53.2821 48.3639L16.4361 52.3878ZM18.1012 67.307L19.2117 77.6471L56.0554 73.6216L54.9456 63.2824L18.1012 67.307ZM19.6966 82.1543L20.8761 92.5647L57.6517 88.5401L56.5427 78.132L19.6966 82.1543ZM21.3625 97.0743L23.7221 119.002C24.2774 118.86 24.8319 118.723 25.4576 118.515L23.6525 102.486C23.5141 100.892 24.9023 99.5035 26.8458 99.2266C28.7877 99.017 30.4528 100.126 30.5928 101.793L32.2571 117.198C32.8812 117.127 33.4365 117.058 34.0614 116.988L32.3963 101.585C32.2579 99.9884 33.6453 98.5329 35.5184 98.3233C37.3923 98.1129 39.127 99.2259 39.2654 100.822L41.0017 116.504C41.5562 116.434 42.1107 116.434 42.5964 116.434H42.8044L41.0697 100.612C40.9313 99.017 42.3195 97.56 44.1918 97.3504C46.1353 97.1423 47.8004 98.2537 48.0085 99.8484L49.812 116.781C50.4369 116.85 51.061 116.918 51.6859 116.988L49.812 99.6411C49.6039 98.1129 51.061 96.5878 52.9349 96.3798C54.808 96.1725 56.5442 97.2815 56.6827 98.9458L58.8326 118.306C59.5271 118.443 60.2905 118.652 60.9842 118.86L58.2085 93.0504L21.3625 97.0743Z" fill="#E61C5D"/>
</g>
</svg>
