<svg width="773" height="288" viewBox="0 0 773 288" fill="none" xmlns="http://www.w3.org/2000/svg">
<g clip-path="url(#clip0_125_492)">
<path d="M666.285 90.399C666.285 85.7211 662.491 81.9277 657.813 81.9277C653.136 81.9277 649.342 85.7211 649.342 90.399C649.342 90.399 648.959 93.3418 652.311 98.1218C653.816 100.274 657.813 106.661 657.813 106.661C657.813 106.661 661.811 100.274 663.316 98.1218C666.667 93.3418 666.285 90.399 666.285 90.399ZM657.813 96.7269C654.403 96.7269 651.639 93.9627 651.639 90.5521C651.639 87.1415 654.403 84.3773 657.813 84.3773C661.224 84.3773 663.988 87.1415 663.988 90.5521C663.988 93.9627 661.224 96.7269 657.813 96.7269Z" fill="#E61C5D"/>
<path d="M28.1968 52.2878L27.6764 51.6373C28.9775 50.5964 30.2972 49.574 31.6356 48.5703L32.1374 49.2395C30.8177 50.2432 29.4794 51.2655 28.1968 52.2878Z" fill="white"/>
<path d="M384.317 2.34143C384.317 2.84329 383.908 3.25222 383.406 3.25222C381.622 3.25222 379.856 3.25222 378.072 3.28939C377.57 3.28939 377.18 2.89905 377.161 2.39719C377.161 1.89532 377.551 1.48639 378.053 1.48639C379.838 1.46781 381.641 1.44922 383.425 1.44922C383.927 1.44922 384.336 1.85815 384.336 2.36001L384.317 2.34143ZM361.938 2.02544C360.153 2.11837 358.369 2.2299 356.566 2.34143C356.064 2.3786 355.692 2.80612 355.73 3.30798C355.767 3.79126 356.157 4.16301 356.622 4.16301C356.64 4.16301 356.659 4.16301 356.677 4.16301C358.462 4.05149 360.246 3.93996 362.012 3.84702C362.514 3.82844 362.886 3.40092 362.867 2.89905C362.849 2.39719 362.421 2.00685 361.919 2.04402L361.938 2.02544ZM372.681 1.59792C370.897 1.65368 369.094 1.70945 367.31 1.7838C366.808 1.80238 366.417 2.2299 366.436 2.71318C366.455 3.19646 366.863 3.5868 367.347 3.5868H367.384C369.168 3.51245 370.953 3.45668 372.737 3.40092C373.239 3.40092 373.629 2.9734 373.611 2.47154C373.611 1.96967 373.183 1.59792 372.681 1.59792ZM351.213 2.71318C349.428 2.84329 347.644 2.99199 345.859 3.15928C345.358 3.19646 344.986 3.64256 345.042 4.14443C345.079 4.60912 345.469 4.96228 345.934 4.96228C345.952 4.96228 345.99 4.96228 346.008 4.96228C347.793 4.79499 349.558 4.66488 351.343 4.51618C351.845 4.479 352.216 4.05149 352.179 3.54962C352.142 3.04775 351.715 2.676 351.213 2.71318ZM394.15 1.56074C392.366 1.52357 390.581 1.48639 388.778 1.46781C388.314 1.46781 387.868 1.85815 387.868 2.36001C387.868 2.86188 388.258 3.27081 388.76 3.27081C390.544 3.27081 392.329 3.32657 394.094 3.36374H394.113C394.596 3.36374 395.005 2.9734 395.024 2.47154C395.024 1.96967 394.633 1.56074 394.132 1.54216L394.15 1.56074ZM340.506 3.66115C338.722 3.84702 336.937 4.0329 335.172 4.23736C334.67 4.29313 334.317 4.73923 334.372 5.2411C334.428 5.70579 334.818 6.04036 335.265 6.04036C335.302 6.04036 335.339 6.04036 335.376 6.04036C337.16 5.8359 338.926 5.65002 340.692 5.46415C341.194 5.40838 341.547 4.96228 341.491 4.479C341.436 3.97714 341.008 3.62397 340.506 3.67973V3.66115ZM329.837 4.88793C328.071 5.11098 326.287 5.35262 324.521 5.59426C324.019 5.66861 323.684 6.11471 323.759 6.61658C323.815 7.06268 324.205 7.39726 324.651 7.39726C324.688 7.39726 324.725 7.39726 324.781 7.39726C326.547 7.15562 328.313 6.91398 330.079 6.69093C330.58 6.63517 330.934 6.17048 330.859 5.6872C330.804 5.18533 330.357 4.83217 329.856 4.90652L329.837 4.88793ZM436.957 4.64629C435.192 4.42324 433.407 4.21878 431.623 4.01431C431.14 3.95855 430.675 4.31171 430.619 4.81358C430.563 5.31545 430.916 5.76155 431.418 5.81731C433.203 6.02178 434.969 6.22624 436.734 6.4307C436.772 6.4307 436.809 6.4307 436.846 6.4307C437.292 6.4307 437.682 6.09613 437.738 5.63144C437.794 5.12957 437.441 4.68347 436.957 4.6277V4.64629ZM404.894 1.9325C403.109 1.83956 401.325 1.7838 399.522 1.70945C399.02 1.70945 398.611 2.0812 398.593 2.58306C398.593 3.08493 398.964 3.49386 399.466 3.51245C401.251 3.56821 403.035 3.64256 404.801 3.7355H404.838C405.321 3.7355 405.712 3.36374 405.749 2.88047C405.767 2.3786 405.377 1.95108 404.894 1.9325ZM447.59 6.11471C445.824 5.85449 444.058 5.59426 442.274 5.35262C441.772 5.27827 441.326 5.63144 441.251 6.1333C441.177 6.63517 441.53 7.08127 442.032 7.15562C443.798 7.39726 445.564 7.65749 447.311 7.91771C447.348 7.91771 447.404 7.91771 447.441 7.91771C447.887 7.91771 448.259 7.60172 448.333 7.15562C448.407 6.65375 448.073 6.20765 447.571 6.1333L447.59 6.11471ZM426.288 3.47527C424.504 3.30798 422.738 3.14069 420.954 2.99199C420.489 2.9734 420.024 3.30798 419.968 3.80985C419.931 4.31171 420.303 4.73923 420.786 4.79499C422.571 4.94369 424.336 5.11098 426.102 5.27827C426.139 5.27827 426.158 5.27827 426.195 5.27827C426.66 5.27827 427.05 4.92511 427.087 4.46042C427.143 3.95855 426.771 3.51245 426.27 3.47527H426.288ZM415.6 2.56448C413.816 2.43436 412.031 2.32284 410.247 2.21131H410.191C409.708 2.21131 409.318 2.58306 409.28 3.06634C409.243 3.56821 409.634 3.99572 410.136 4.01431C411.92 4.12584 413.686 4.23736 415.47 4.36748H415.545C416.009 4.36748 416.418 4.01431 416.437 3.53103C416.474 3.02917 416.102 2.60165 415.6 2.56448ZM298.052 10.1668C296.305 10.52 294.558 10.9103 292.792 11.2821C292.309 11.3936 291.993 11.8769 292.104 12.3602C292.197 12.7877 292.569 13.0665 292.978 13.0665C293.033 13.0665 293.108 13.0665 293.164 13.0479C294.911 12.6576 296.658 12.2858 298.387 11.9326C298.87 11.8397 299.186 11.3564 299.093 10.8546C298.981 10.3713 298.517 10.0553 298.015 10.1482L298.052 10.1668ZM319.205 6.37494C317.439 6.65376 315.673 6.93257 313.907 7.22997C313.405 7.30432 313.089 7.76901 313.164 8.27088C313.238 8.71698 313.629 9.03297 314.056 9.03297C314.112 9.03297 314.149 9.03297 314.205 9.03297C315.971 8.73557 317.718 8.45676 319.484 8.19653C319.985 8.12218 320.32 7.65749 320.246 7.17421C320.171 6.67234 319.707 6.33777 319.223 6.41212L319.205 6.37494ZM226.322 32.3604C224.668 33.0482 223.032 33.7731 221.397 34.4794C220.932 34.6839 220.728 35.2229 220.932 35.669C221.081 36.0036 221.415 36.2081 221.768 36.2081C221.899 36.2081 222.01 36.1895 222.14 36.1337C223.776 35.4088 225.412 34.7025 227.047 34.0147C227.512 33.8289 227.717 33.2898 227.531 32.8251C227.345 32.3604 226.806 32.156 226.341 32.3419L226.322 32.3604ZM256.527 21.1335C254.817 21.6911 253.126 22.2488 251.434 22.825C250.97 22.9923 250.709 23.4941 250.877 23.9774C251.007 24.3492 251.36 24.5908 251.732 24.5908C251.825 24.5908 251.918 24.5908 252.029 24.5351C253.721 23.9588 255.412 23.4012 257.104 22.8622C257.587 22.7135 257.847 22.193 257.68 21.7283C257.531 21.245 257.011 20.9848 256.546 21.1521L256.527 21.1335ZM246.36 24.5908C244.668 25.1856 242.996 25.799 241.304 26.431C240.839 26.5983 240.598 27.1187 240.765 27.602C240.895 27.9738 241.248 28.1968 241.62 28.1968C241.732 28.1968 241.825 28.1968 241.936 28.1411C243.609 27.5277 245.282 26.9143 246.955 26.3195C247.419 26.1522 247.68 25.6317 247.512 25.167C247.345 24.7023 246.825 24.4421 246.36 24.6094V24.5908ZM598.744 91.971C598.856 92.3799 599.209 92.6401 599.618 92.6401C599.692 92.6401 599.766 92.6401 599.859 92.603C600.343 92.4728 600.622 91.971 600.491 91.4877C600.027 89.7776 599.451 88.0304 598.781 86.3389C598.595 85.8742 598.075 85.6512 597.61 85.8185C597.146 86.0043 596.923 86.5248 597.09 86.9895C597.74 88.6252 598.279 90.2981 598.744 91.971ZM216.452 36.6728C214.835 37.4163 213.2 38.1784 211.582 38.9405C211.136 39.1635 210.932 39.7026 211.155 40.1487C211.304 40.4647 211.638 40.6691 211.973 40.6691C212.103 40.6691 212.233 40.6319 212.363 40.5762C213.98 39.8141 215.579 39.052 217.196 38.3085C217.642 38.104 217.846 37.565 217.642 37.1189C217.438 36.6728 216.899 36.4683 216.452 36.6728ZM236.248 28.3083C234.575 28.9589 232.921 29.6095 231.248 30.2972C230.783 30.4831 230.56 31.0035 230.746 31.4682C230.895 31.8214 231.23 32.0259 231.583 32.0259C231.694 32.0259 231.806 32.0073 231.917 31.9515C233.572 31.2824 235.226 30.6318 236.88 29.9812C237.345 29.7954 237.568 29.2749 237.401 28.8102C237.215 28.3455 236.694 28.1225 236.23 28.2898L236.248 28.3083ZM266.751 17.955C265.04 18.4569 263.312 18.9774 261.602 19.4978C261.118 19.6465 260.858 20.1484 261.007 20.6317C261.118 21.022 261.49 21.2636 261.862 21.2636C261.955 21.2636 262.048 21.2636 262.122 21.2265C263.832 20.706 265.542 20.1856 267.234 19.6837C267.717 19.535 267.996 19.0331 267.847 18.5684C267.698 18.0851 267.197 17.8063 266.732 17.955H266.751ZM458.147 7.84336C456.4 7.52737 454.634 7.22997 452.85 6.93257C452.367 6.85822 451.883 7.1928 451.809 7.67607C451.735 8.17794 452.069 8.64263 452.552 8.71698C454.318 9.01438 456.066 9.31179 457.813 9.60919C457.869 9.60919 457.924 9.60919 457.98 9.60919C458.408 9.60919 458.798 9.2932 458.872 8.86568C458.965 8.3824 458.631 7.89913 458.147 7.82478V7.84336ZM308.573 8.14077C306.807 8.45676 305.041 8.79133 303.294 9.12591C302.811 9.21885 302.476 9.70213 302.569 10.1854C302.643 10.6129 303.034 10.9103 303.461 10.9103C303.517 10.9103 303.573 10.9103 303.628 10.9103C305.376 10.5757 307.141 10.2412 308.889 9.92518C309.372 9.83224 309.707 9.36755 309.614 8.88427C309.521 8.40099 309.056 8.06641 308.573 8.15935V8.14077ZM277.104 15.0925C275.375 15.5386 273.647 16.0219 271.918 16.4866C271.435 16.6167 271.156 17.1186 271.286 17.6019C271.397 18.0108 271.769 18.271 272.16 18.271C272.234 18.271 272.327 18.271 272.401 18.2339C274.111 17.7506 275.84 17.2859 277.569 16.8398C278.052 16.7097 278.331 16.2264 278.219 15.7431C278.089 15.2598 277.606 14.981 277.122 15.0925H277.104ZM287.531 12.4903C285.784 12.8992 284.056 13.3267 282.308 13.7542C281.825 13.8843 281.528 14.3676 281.658 14.8509C281.769 15.2598 282.123 15.5386 282.531 15.5386C282.606 15.5386 282.68 15.5386 282.754 15.5201C284.483 15.0925 286.212 14.665 287.959 14.2561C288.442 14.1446 288.74 13.6613 288.628 13.178C288.517 12.6947 288.033 12.3787 287.55 12.5089L287.531 12.4903ZM599.804 97.064C600.064 98.7926 600.231 100.54 600.287 102.269C600.287 102.752 600.696 103.142 601.198 103.142H601.235C601.737 103.142 602.127 102.715 602.109 102.213C602.053 100.41 601.885 98.5882 601.607 96.7852C601.532 96.2833 601.068 95.9487 600.584 96.0231C600.083 96.0974 599.748 96.5621 599.822 97.0454L599.804 97.064ZM571.959 52.9741C571.569 52.6581 570.993 52.7325 570.695 53.1228C570.379 53.5132 570.454 54.0894 570.844 54.3868C572.257 55.502 573.614 56.6359 574.933 57.7697C575.101 57.9184 575.324 57.9928 575.528 57.9928C575.788 57.9928 576.03 57.8813 576.216 57.6768C576.551 57.305 576.495 56.7288 576.123 56.3943C574.785 55.2418 573.391 54.0894 571.959 52.9555V52.9741ZM580.844 144.035C579.618 145.262 578.335 146.488 577.015 147.697C576.644 148.031 576.625 148.607 576.96 148.979C577.145 149.184 577.387 149.277 577.629 149.277C577.852 149.277 578.056 149.202 578.242 149.035C579.58 147.808 580.9 146.563 582.145 145.299C582.499 144.946 582.499 144.37 582.145 144.016C581.792 143.663 581.216 143.663 580.863 144.016L580.844 144.035ZM580.101 60.0374C579.748 59.6843 579.171 59.7029 578.818 60.0746C578.484 60.4278 578.484 61.004 578.855 61.3571C580.157 62.5839 581.421 63.8479 582.592 65.1119C582.777 65.2977 583 65.3907 583.242 65.3907C583.465 65.3907 583.688 65.3163 583.855 65.149C584.227 64.8144 584.227 64.2382 583.893 63.8665C582.684 62.5839 581.402 61.3014 580.082 60.0374H580.101ZM563.26 46.6172C562.851 46.3383 562.294 46.4499 562.015 46.8588C561.736 47.2677 561.848 47.8254 562.257 48.1228C563.744 49.1265 565.194 50.1488 566.606 51.1897C566.773 51.3012 566.959 51.357 567.145 51.357C567.424 51.357 567.703 51.2269 567.87 50.9853C568.168 50.5763 568.075 50.0187 567.666 49.7213C566.234 48.6804 564.766 47.6395 563.26 46.6357V46.6172ZM573 151.191C571.662 152.306 570.287 153.403 568.855 154.518C568.465 154.816 568.391 155.392 568.688 155.782C568.874 156.005 569.134 156.135 569.394 156.135C569.58 156.135 569.785 156.08 569.952 155.95C571.402 154.834 572.796 153.7 574.153 152.585C574.543 152.269 574.58 151.693 574.264 151.303C573.948 150.912 573.372 150.875 573 151.191ZM587.87 136.117C586.811 137.473 585.677 138.83 584.469 140.169C584.134 140.54 584.171 141.117 584.543 141.451C584.711 141.6 584.934 141.674 585.138 141.674C585.38 141.674 585.64 141.563 585.807 141.377C587.034 140.001 588.186 138.607 589.283 137.232C589.599 136.842 589.525 136.265 589.134 135.968C588.744 135.671 588.168 135.726 587.87 136.117ZM601.123 106.692C600.64 106.655 600.194 107.008 600.138 107.51C599.99 109.239 599.729 110.986 599.376 112.696C599.283 113.179 599.581 113.663 600.082 113.774C600.138 113.774 600.213 113.793 600.268 113.793C600.677 113.793 601.068 113.495 601.161 113.068C601.532 111.284 601.793 109.481 601.96 107.678C601.997 107.176 601.644 106.748 601.142 106.692H601.123ZM468.687 9.86941C466.939 9.51625 465.192 9.16308 463.426 8.82851C462.943 8.73557 462.46 9.05156 462.367 9.55342C462.274 10.0367 462.59 10.52 463.092 10.6129C464.857 10.9475 466.586 11.3007 468.333 11.6538C468.389 11.6538 468.464 11.6538 468.519 11.6538C468.947 11.6538 469.319 11.3564 469.411 10.9289C469.504 10.4456 469.188 9.96235 468.705 9.86941H468.687ZM564.599 157.697C563.186 158.719 561.736 159.723 560.231 160.727C559.822 161.005 559.71 161.563 559.989 161.972C560.156 162.232 560.454 162.381 560.732 162.381C560.9 162.381 561.086 162.325 561.234 162.232C562.759 161.21 564.227 160.188 565.658 159.165C566.067 158.868 566.16 158.31 565.863 157.901C565.565 157.492 565.008 157.399 564.599 157.697ZM590.844 72.1566C589.804 70.7253 588.688 69.2941 587.517 67.9C587.201 67.5097 586.625 67.4725 586.235 67.7885C585.844 68.1045 585.807 68.6807 586.123 69.071C587.276 70.4465 588.372 71.8406 589.376 73.2346C589.543 73.4763 589.822 73.6064 590.101 73.6064C590.287 73.6064 590.473 73.5506 590.64 73.4391C591.049 73.1417 591.123 72.5841 590.844 72.1752V72.1566ZM594.989 127.009C594.562 126.767 594.004 126.916 593.763 127.362C592.926 128.867 591.997 130.373 590.993 131.86C590.714 132.269 590.826 132.827 591.235 133.105C591.384 133.217 591.569 133.254 591.737 133.254C592.034 133.254 592.313 133.105 592.48 132.864C593.502 131.34 594.469 129.797 595.324 128.254C595.566 127.827 595.417 127.269 594.971 127.027L594.989 127.009ZM596.532 81.376C595.733 79.7961 594.841 78.2161 593.874 76.6548C593.614 76.2273 593.056 76.0971 592.629 76.3574C592.201 76.6176 592.071 77.1752 592.331 77.6027C593.279 79.1269 594.134 80.6697 594.915 82.1939C595.064 82.5099 595.398 82.6958 595.714 82.6958C595.845 82.6958 595.993 82.6586 596.123 82.6028C596.569 82.3798 596.755 81.8407 596.514 81.3946L596.532 81.376ZM599.172 117.176C598.688 117.027 598.187 117.287 598.038 117.752C597.499 119.388 596.867 121.023 596.142 122.659C595.937 123.124 596.142 123.644 596.607 123.849C596.718 123.905 596.848 123.923 596.978 123.923C597.332 123.923 597.648 123.719 597.796 123.384C598.54 121.711 599.209 120.001 599.767 118.31C599.915 117.826 599.674 117.325 599.19 117.176H599.172ZM530.174 28.8102C528.539 28.1039 526.884 27.4161 525.23 26.7284C524.765 26.5425 524.245 26.7656 524.059 27.2303C523.873 27.695 524.096 28.2154 524.561 28.4013C526.215 29.0704 527.87 29.7582 529.487 30.4645C529.598 30.5203 529.728 30.5389 529.84 30.5389C530.193 30.5389 530.528 30.3344 530.676 29.9998C530.881 29.5351 530.676 29.0147 530.212 28.8102H530.174ZM510.137 21.0963C508.445 20.5201 506.754 19.9625 505.044 19.4049C504.579 19.2562 504.059 19.5164 503.91 19.9811C503.761 20.4644 504.022 20.9662 504.486 21.1149C506.196 21.6726 507.888 22.2302 509.561 22.8064C509.654 22.8436 509.765 22.8622 509.858 22.8622C510.23 22.8622 510.583 22.6205 510.713 22.2488C510.88 21.7841 510.62 21.2636 510.156 21.0963H510.137ZM520.23 24.7581C518.576 24.1261 516.903 23.4941 515.193 22.8808C514.728 22.7135 514.208 22.9551 514.04 23.4198C513.873 23.8845 514.115 24.4049 514.579 24.5722C516.271 25.1856 517.925 25.799 519.579 26.4496C519.691 26.4868 519.803 26.5053 519.895 26.5053C520.267 26.5053 520.602 26.2823 520.732 25.9291C520.918 25.4644 520.676 24.944 520.211 24.7581H520.23ZM499.914 17.7877C498.204 17.2673 496.494 16.7654 494.765 16.2636C494.282 16.1334 493.78 16.4123 493.65 16.877C493.52 17.3602 493.798 17.8621 494.263 17.9922C495.992 18.4941 497.683 18.9959 499.375 19.4978C499.468 19.5164 499.542 19.535 499.635 19.535C500.025 19.535 500.378 19.2933 500.509 18.903C500.657 18.4197 500.378 17.9179 499.914 17.7692V17.7877ZM489.598 14.8323C487.888 14.3676 486.14 13.9215 484.412 13.4754C483.928 13.3639 483.427 13.6427 483.315 14.126C483.185 14.6093 483.482 15.0925 483.966 15.2227C485.694 15.6688 487.423 16.1149 489.133 16.5795C489.207 16.5981 489.282 16.6167 489.375 16.6167C489.765 16.6167 490.137 16.3565 490.248 15.9476C490.378 15.4643 490.099 14.9624 489.616 14.8323H489.598ZM479.189 12.1929C477.46 11.7839 475.713 11.375 473.947 10.9847C473.464 10.8731 472.98 11.1891 472.869 11.6724C472.757 12.1557 473.073 12.639 473.556 12.7505C475.304 13.1408 477.032 13.5312 478.761 13.9401C478.835 13.9401 478.91 13.9587 478.966 13.9587C479.374 13.9587 479.746 13.6799 479.839 13.271C479.951 12.7877 479.653 12.3044 479.17 12.1743L479.189 12.1929ZM546.624 169.091C545.1 169.946 543.539 170.801 541.959 171.656C541.513 171.898 541.346 172.437 541.587 172.883C541.754 173.18 542.071 173.366 542.387 173.366C542.535 173.366 542.684 173.329 542.814 173.255C544.413 172.4 545.992 171.526 547.517 170.671C547.944 170.429 548.112 169.872 547.851 169.444C547.61 169.017 547.052 168.849 546.624 169.091ZM537.219 174.128C535.658 174.928 534.059 175.708 532.442 176.508C531.996 176.731 531.81 177.27 532.033 177.716C532.182 178.032 532.516 178.218 532.851 178.218C532.981 178.218 533.111 178.18 533.241 178.125C534.877 177.325 536.476 176.526 538.037 175.727C538.483 175.504 538.65 174.965 538.427 174.519C538.204 174.073 537.647 173.905 537.219 174.128ZM555.77 163.645C554.301 164.574 552.777 165.504 551.234 166.433C550.807 166.693 550.658 167.251 550.918 167.678C551.086 167.957 551.383 168.124 551.699 168.124C551.848 168.124 552.015 168.087 552.164 167.994C553.725 167.065 555.249 166.117 556.736 165.188C557.164 164.927 557.275 164.37 557.015 163.942C556.755 163.515 556.197 163.385 555.77 163.663V163.645ZM549.506 38.2341C547.944 37.3791 546.364 36.5241 544.766 35.7062C544.32 35.4832 543.781 35.6505 543.539 36.0966C543.316 36.5427 543.483 37.0817 543.929 37.3233C545.528 38.1412 547.089 38.9776 548.632 39.8327C548.781 39.907 548.929 39.9442 549.078 39.9442C549.394 39.9442 549.71 39.7769 549.877 39.4795C550.119 39.0334 549.952 38.4944 549.524 38.2527L549.506 38.2341ZM558.781 43.6989C557.275 42.7509 555.751 41.8215 554.19 40.9108C553.762 40.6691 553.205 40.7992 552.963 41.2267C552.703 41.6543 552.851 42.2119 553.279 42.4721C554.822 43.3829 556.346 44.3123 557.833 45.2417C557.982 45.3346 558.149 45.3718 558.316 45.3718C558.613 45.3718 558.911 45.2231 559.078 44.9443C559.338 44.5168 559.227 43.9591 558.799 43.6989H558.781ZM539.97 33.2898C538.372 32.5091 536.754 31.7471 535.1 31.0036C534.654 30.7991 534.115 31.0035 533.911 31.4497C533.706 31.8958 533.911 32.4348 534.357 32.6578C535.992 33.4014 537.591 34.1634 539.171 34.9441C539.301 34.9999 539.431 35.0371 539.561 35.0371C539.896 35.0371 540.212 34.8512 540.379 34.5352C540.602 34.0891 540.416 33.5501 539.97 33.327V33.2898Z" fill="#E61C5D"/>
<path d="M612.313 8.68042C607.889 6.9146 602.164 5.5577 601.774 6.50567C601.402 7.47223 606.495 10.3905 610.919 12.1563C611.328 12.3236 611.718 12.4723 612.108 12.621C612.331 13.2344 612.815 14.5355 613.428 16.1712C613.41 16.1712 613.41 16.1341 613.372 16.1155L612.183 15.6508C612.034 15.595 611.867 15.688 611.792 15.8552L611.328 17.0077C611.253 17.175 611.328 17.3608 611.476 17.4166L612.666 17.8813C612.666 17.8813 612.796 17.8813 612.87 17.8813L614.246 18.4389C614.766 19.833 615.324 21.3572 615.882 22.8442L614.711 22.3795C614.562 22.3237 614.395 22.4167 614.32 22.584L613.856 23.7364C613.781 23.9037 613.856 24.0896 614.004 24.1453L615.194 24.61C615.194 24.61 615.324 24.61 615.398 24.61L616.737 25.1491C618.168 28.9595 619.376 32.138 619.45 32.2124C619.655 32.4168 621.439 33.0488 621.439 33.0488C621.848 33.2161 622.201 33.309 622.22 33.2533C622.22 33.2161 621.792 32.993 621.402 32.8258L620.101 25.0933C620.436 25.2048 620.714 25.2234 620.733 25.1491C620.77 25.0375 620.473 24.8331 620.064 24.6658H620.027L619.766 23.123C620.082 23.2159 620.343 23.2531 620.38 23.1602C620.417 23.0487 620.12 22.8442 619.711 22.6769L619.469 21.2828L619.581 20.3163C619.952 20.4464 620.287 20.5022 620.324 20.3906C620.361 20.2791 620.064 20.0746 619.655 19.9074H619.636L619.841 17.9557C620.213 18.0858 620.529 18.1229 620.566 18.03C620.603 17.9185 620.305 17.714 619.897 17.5467H619.878L620.064 15.7623C623.056 16.9147 624.246 17.3423 626.439 18.2159C628.651 19.0895 630.845 19.7772 632.741 20.2791C633.521 22.3423 635.046 26.4874 635.046 26.4874L636.254 27.0822L637.09 21.1899C637.518 21.2457 637.871 21.2642 638.131 21.2642C639.079 21.5616 639.674 21.7104 639.711 21.636C639.748 21.5431 639.228 21.2457 638.373 20.8367C638.187 20.6694 637.889 20.4464 637.48 20.1862L640.938 15.279L639.655 14.8887C639.655 14.8887 635.454 16.9891 633.54 17.9185C631.886 17.0263 629.934 16.0411 627.871 15.0374C625.12 13.9407 623.93 13.4389 621.421 12.3979L622.499 10.9853C622.908 11.1526 623.279 11.2083 623.317 11.0968C623.354 11.0039 623.094 10.818 622.722 10.6507L623.911 9.08935H623.93C624.339 9.25664 624.711 9.3124 624.748 9.20088C624.785 9.10794 624.525 8.90347 624.153 8.75477L624.748 7.97409L625.882 7.11906C626.291 7.28635 626.662 7.34211 626.7 7.23059C626.737 7.13765 626.532 6.98895 626.235 6.84025L627.48 5.91087H627.517C627.926 6.09674 628.298 6.13392 628.335 6.04098C628.373 5.94804 628.149 5.78075 627.834 5.63205L634.098 0.910794C634.488 1.05949 634.971 1.2082 634.99 1.17102C635.008 1.11526 634.692 0.947969 634.283 0.78068C634.283 0.78068 632.573 0 632.276 0C632.164 0 629.097 1.48701 625.454 3.27142L624.116 2.73238C624.116 2.73238 624.042 2.60227 623.986 2.58368L622.796 2.11899C622.648 2.06323 622.48 2.15617 622.406 2.32345L621.941 3.47589C621.867 3.64318 621.941 3.82905 622.09 3.88481L623.261 4.34951C621.83 5.05584 620.38 5.76217 619.042 6.43132L617.666 5.87369C617.666 5.87369 617.592 5.74358 617.536 5.72499L616.346 5.2603C616.198 5.20454 616.03 5.29747 615.956 5.46476L615.491 6.6172C615.417 6.78448 615.491 6.97036 615.64 7.02612L616.83 7.49082C616.83 7.49082 616.885 7.49082 616.904 7.49082C615.361 8.25291 614.134 8.8663 613.54 9.1637C613.149 9.015 612.759 8.84771 612.35 8.68042H612.313Z" fill="#E61C5D"/>
<path d="M495.546 194.836C491.326 197.048 486.549 200.468 487.014 201.398C487.497 202.309 493.036 200.357 497.274 198.145C497.665 197.941 498.036 197.755 498.408 197.55C499.021 197.773 500.323 198.257 501.958 198.87C501.94 198.87 501.903 198.87 501.884 198.87L500.75 199.465C500.62 199.539 500.564 199.725 500.657 199.892L501.233 200.989C501.326 201.156 501.494 201.231 501.642 201.156L502.776 200.561C502.776 200.561 502.869 200.468 502.888 200.394L504.207 199.706C505.601 200.227 507.126 200.784 508.613 201.342L507.497 201.918C507.367 201.993 507.312 202.178 507.404 202.346L507.981 203.442C508.074 203.61 508.241 203.684 508.39 203.61L509.523 203.015C509.523 203.015 509.616 202.922 509.635 202.848L510.918 202.178C514.728 203.573 517.925 204.744 518.055 204.725C518.334 204.688 519.988 203.758 519.988 203.758C520.379 203.554 520.676 203.35 520.657 203.294C520.639 203.257 520.174 203.442 519.802 203.647L513.092 199.595C513.39 199.409 513.594 199.223 513.538 199.149C513.483 199.056 513.129 199.149 512.739 199.335H512.702L511.382 198.554C511.661 198.387 511.847 198.201 511.81 198.108C511.754 198.015 511.401 198.108 511.01 198.294L509.802 197.569L509.133 196.862C509.486 196.658 509.728 196.454 509.672 196.361C509.616 196.268 509.263 196.361 508.873 196.546H508.854L507.516 195.134C507.869 194.948 508.111 194.725 508.055 194.632C507.999 194.539 507.646 194.632 507.256 194.818L506.029 193.517C508.854 192.011 509.951 191.379 512.051 190.282C514.17 189.186 516.122 187.978 517.739 186.862C519.821 187.624 523.929 189.167 523.929 189.167L525.156 188.647L521.234 184.167C521.568 183.87 521.81 183.628 521.977 183.442C522.814 182.922 523.334 182.569 523.278 182.476C523.241 182.383 522.665 182.587 521.791 182.977C521.531 183.015 521.178 183.089 520.713 183.219L519.263 177.383L518.13 178.089C518.13 178.089 516.977 182.643 516.419 184.706C514.654 185.375 512.646 186.212 510.527 187.123C507.906 188.479 506.735 189.056 504.319 190.282L503.947 188.535C504.337 188.331 504.616 188.07 504.561 187.978C504.505 187.885 504.189 187.978 503.836 188.126L503.427 186.212H503.445C503.836 185.989 504.114 185.747 504.059 185.654C504.003 185.561 503.687 185.654 503.334 185.821L503.129 184.873L503.222 183.461C503.613 183.256 503.891 182.996 503.836 182.903C503.798 182.829 503.538 182.866 503.222 182.996L503.315 181.453H503.352C503.743 181.23 504.022 180.989 503.966 180.877C503.929 180.803 503.65 180.84 503.334 180.989L503.836 173.163C504.207 172.959 504.635 172.699 504.616 172.661C504.598 172.624 504.263 172.736 503.854 172.959C503.854 172.959 502.144 173.777 501.958 174C501.884 174.093 501.01 177.383 499.969 181.305L498.687 181.974C498.687 181.974 498.557 181.955 498.482 181.974L497.349 182.569C497.218 182.643 497.163 182.829 497.256 182.996L497.832 184.093C497.925 184.26 498.092 184.334 498.241 184.26L499.356 183.684C498.947 185.227 498.538 186.788 498.166 188.238L496.847 188.926C496.847 188.926 496.717 188.907 496.642 188.926L495.508 189.52C495.378 189.595 495.322 189.781 495.415 189.948L495.992 191.045C496.085 191.212 496.252 191.286 496.401 191.212L497.534 190.617C497.534 190.617 497.553 190.58 497.572 190.561C497.144 192.234 496.791 193.554 496.624 194.204C496.252 194.39 495.88 194.595 495.49 194.799L495.546 194.836Z" fill="#E61C5D"/>
<path d="M129.202 41.5993C132.92 38.6252 136.954 34.3315 136.303 33.5322C135.652 32.733 130.578 35.707 126.86 38.6996C126.526 38.9784 126.191 39.2386 125.875 39.4989C125.225 39.3873 123.868 39.1643 122.139 38.8855C122.158 38.8855 122.195 38.8855 122.214 38.8855L123.217 38.0862C123.347 37.9933 123.347 37.7888 123.217 37.6587L122.437 36.6921C122.325 36.5434 122.139 36.5062 122.009 36.6178L121.005 37.417C121.005 37.417 120.931 37.5286 120.912 37.6029L119.741 38.5323C118.273 38.2907 116.674 38.0304 115.094 37.7702L116.08 36.9895C116.21 36.8966 116.21 36.6921 116.08 36.562L115.299 35.5954C115.187 35.4467 115.002 35.4096 114.871 35.5211L113.868 36.3204C113.868 36.3204 113.793 36.4319 113.775 36.5062L112.641 37.3985C108.626 36.7479 105.262 36.2274 105.15 36.2646C104.871 36.3575 103.44 37.5843 103.44 37.5843C103.087 37.8631 102.845 38.1234 102.864 38.1605C102.901 38.1977 103.31 37.9189 103.644 37.6587L111.024 40.3539C110.764 40.5955 110.615 40.8186 110.671 40.8929C110.745 40.9859 111.08 40.8186 111.414 40.5398L111.451 40.5026L112.901 41.0416C112.659 41.2647 112.511 41.4877 112.567 41.5621C112.641 41.655 112.975 41.4877 113.31 41.2089L114.63 41.6736L115.429 42.2498C115.132 42.51 114.927 42.7703 114.983 42.8446C115.057 42.9376 115.392 42.7703 115.726 42.4915H115.745L117.325 43.6067C117.028 43.8669 116.823 44.1272 116.897 44.2015C116.972 44.2945 117.306 44.1272 117.641 43.8484L119.091 44.8893C116.619 46.9153 115.652 47.7332 113.812 49.2202C111.953 50.7072 110.262 52.2686 108.905 53.6626C106.711 53.328 102.381 52.6031 102.381 52.6031L101.265 53.3466L105.968 56.9898C105.708 57.343 105.503 57.6218 105.392 57.8448C104.667 58.514 104.239 58.9601 104.295 59.0345C104.351 59.1088 104.871 58.8114 105.652 58.2538C105.894 58.1794 106.228 58.0121 106.656 57.8077L109.202 63.2538L110.187 62.3431C110.187 62.3431 110.448 57.659 110.596 55.5214C112.195 54.5177 114.016 53.328 115.912 52.0083C118.217 50.1681 119.258 49.3875 121.396 47.7146L122.083 49.3503C121.73 49.6477 121.507 49.9265 121.582 50.0194C121.637 50.0938 121.935 49.9637 122.269 49.722L123.031 51.525H123.013C122.66 51.8224 122.437 52.1199 122.511 52.1942C122.567 52.2686 122.883 52.1384 123.199 51.8968L123.589 52.789L123.775 54.1831C123.422 54.4619 123.199 54.7593 123.273 54.8522C123.329 54.9266 123.57 54.8336 123.849 54.6292L124.054 56.172H124.017C123.663 56.4694 123.44 56.7668 123.515 56.8597C123.57 56.934 123.831 56.8225 124.109 56.6181L125.113 64.4063C124.797 64.6851 124.425 65.0197 124.444 65.0568C124.481 65.094 124.779 64.9081 125.132 64.6293C125.132 64.6293 126.656 63.4955 126.786 63.2538C126.842 63.1609 127.065 59.7594 127.325 55.7073L128.459 54.8151C128.459 54.8151 128.608 54.8151 128.663 54.7779L129.667 53.9786C129.797 53.8857 129.797 53.6812 129.667 53.5511L128.886 52.5845C128.775 52.4358 128.589 52.3987 128.459 52.5102L127.474 53.2909C127.567 51.6923 127.66 50.0938 127.753 48.5882L128.924 47.6588C128.924 47.6588 129.072 47.6588 129.128 47.6216L130.132 46.8224C130.262 46.7294 130.262 46.525 130.132 46.3949L129.351 45.4283C129.24 45.2796 129.054 45.2424 128.924 45.354L127.92 46.1532C127.92 46.1532 127.92 46.1904 127.883 46.2276C127.994 44.4989 128.069 43.142 128.106 42.4729C128.422 42.2126 128.756 41.9524 129.11 41.6736L129.202 41.5993Z" fill="#E61C5D"/>
</g>
<defs>
<clipPath id="clip0_125_492">
<rect width="772" height="287.383" fill="white" transform="translate(0.0180664)"/>
</clipPath>
</defs>
</svg>
