<svg width="194" height="74" viewBox="0 0 194 74" fill="none" xmlns="http://www.w3.org/2000/svg">
<path d="M162.997 74.0001H161.006V21.4408H162.997V29.6401C164.192 26.907 165.941 24.7112 168.242 23.0526C170.565 21.3707 173.331 20.5298 176.54 20.5298C178.952 20.5298 181.209 21.0087 183.311 21.9664C185.414 22.9242 187.261 24.2557 188.855 25.9609C190.47 27.6428 191.731 29.5933 192.639 31.8125C193.546 34.0317 194 36.4144 194 38.9606C194 41.5068 193.546 43.9012 192.639 46.1437C191.731 48.3862 190.47 50.3601 188.855 52.0654C187.261 53.7473 185.414 55.0671 183.311 56.0248C181.209 56.9826 178.952 57.4615 176.54 57.4615C173.331 57.4615 170.565 56.6322 168.242 54.9737C165.941 53.2918 164.192 51.0843 162.997 48.3512V74.0001ZM176.54 22.6322C173.73 22.6322 171.318 23.368 169.304 24.8396C167.313 26.288 165.786 28.2502 164.723 30.7263C163.661 33.1791 163.13 35.9238 163.13 38.9606C163.13 41.9506 163.65 44.6954 164.69 47.1949C165.73 49.671 167.246 51.6566 169.238 53.1516C171.251 54.6233 173.686 55.3591 176.54 55.3591C179.306 55.3591 181.862 54.6349 184.208 53.1866C186.553 51.7383 188.434 49.7761 189.85 47.3C191.289 44.8239 192.008 42.0441 192.008 38.9606C192.008 35.9705 191.311 33.2375 189.917 30.7613C188.545 28.2852 186.686 26.3113 184.34 24.8396C181.995 23.368 179.395 22.6322 176.54 22.6322Z" fill="#3E3E3E"/>
<path d="M162.997 74.0001H161.006V21.4408H162.997V29.6401C164.192 26.907 165.941 24.7112 168.242 23.0526C170.565 21.3707 173.331 20.5298 176.54 20.5298C178.952 20.5298 181.209 21.0087 183.311 21.9664C185.414 22.9242 187.261 24.2557 188.855 25.9609C190.47 27.6428 191.731 29.5933 192.639 31.8125C193.546 34.0317 194 36.4144 194 38.9606C194 41.5068 193.546 43.9012 192.639 46.1437C191.731 48.3862 190.47 50.3601 188.855 52.0654C187.261 53.7473 185.414 55.0671 183.311 56.0248C181.209 56.9826 178.952 57.4615 176.54 57.4615C173.331 57.4615 170.565 56.6322 168.242 54.9737C165.941 53.2918 164.192 51.0843 162.997 48.3512V74.0001ZM176.54 22.6322C173.73 22.6322 171.318 23.368 169.304 24.8396C167.313 26.288 165.786 28.2502 164.723 30.7263C163.661 33.1791 163.13 35.9238 163.13 38.9606C163.13 41.9506 163.65 44.6954 164.69 47.1949C165.73 49.671 167.246 51.6566 169.238 53.1516C171.251 54.6233 173.686 55.3591 176.54 55.3591C179.306 55.3591 181.862 54.6349 184.208 53.1866C186.553 51.7383 188.434 49.7761 189.85 47.3C191.289 44.8239 192.008 42.0441 192.008 38.9606C192.008 35.9705 191.311 33.2375 189.917 30.7613C188.545 28.2852 186.686 26.3113 184.34 24.8396C181.995 23.368 179.395 22.6322 176.54 22.6322Z" fill="black" fill-opacity="0.2"/>
<path d="M151.022 21.4395H153.014V56.479H151.022V21.4395Z" fill="#3E3E3E"/>
<path d="M151.022 21.4395H153.014V56.479H151.022V21.4395Z" fill="black" fill-opacity="0.2"/>
<path d="M128.721 56.4791V21.4396H130.712V27.5715C131.929 25.4224 133.589 23.7055 135.691 22.4207C137.793 21.1126 140.106 20.4585 142.629 20.4585C143.934 20.4585 145.184 20.6337 146.379 20.9841L145.516 22.9463C144.543 22.6893 143.58 22.5609 142.629 22.5609C140.438 22.5609 138.435 23.1332 136.621 24.2778C134.828 25.3991 133.39 26.9058 132.306 28.7979C131.243 30.69 130.712 32.8041 130.712 35.1401V56.4791H128.721Z" fill="#3E3E3E"/>
<path d="M128.721 56.4791V21.4396H130.712V27.5715C131.929 25.4224 133.589 23.7055 135.691 22.4207C137.793 21.1126 140.106 20.4585 142.629 20.4585C143.934 20.4585 145.184 20.6337 146.379 20.9841L145.516 22.9463C144.543 22.6893 143.58 22.5609 142.629 22.5609C140.438 22.5609 138.435 23.1332 136.621 24.2778C134.828 25.3991 133.39 26.9058 132.306 28.7979C131.243 30.69 130.712 32.8041 130.712 35.1401V56.4791H128.721Z" fill="black" fill-opacity="0.2"/>
<path d="M122.815 23.5413H113.72L113.654 56.4785H111.662L111.728 23.5413H104.891V21.4389H111.728L111.662 10.4365H113.654L113.72 21.4389H122.815V23.5413Z" fill="#3E3E3E"/>
<path d="M122.815 23.5413H113.72L113.654 56.4785H111.662L111.728 23.5413H104.891V21.4389H111.728L111.662 10.4365H113.654L113.72 21.4389H122.815V23.5413Z" fill="black" fill-opacity="0.2"/>
<path d="M99.8742 35.1401V56.4791H97.8827V35.1401C97.8827 32.8041 97.3405 30.69 96.2562 28.7979C95.194 26.9058 93.7557 25.3991 91.9411 24.2778C90.1487 23.1332 88.1571 22.5609 85.9664 22.5609C83.7757 22.5609 81.773 23.1332 79.9585 24.2778C78.1661 25.3991 76.7277 26.9058 75.6434 28.7979C74.5813 30.69 74.0502 32.8041 74.0502 35.1401V56.4791H72.0586V21.4396H74.0502V27.5715C75.2672 25.4224 76.9269 23.7055 79.0291 22.4207C81.1313 21.1126 83.4438 20.4585 85.9664 20.4585C88.5333 20.4585 90.8679 21.1242 92.9701 22.4558C95.0723 23.7639 96.743 25.5276 97.9822 27.7467C99.2436 29.9659 99.8742 32.4303 99.8742 35.1401Z" fill="#3E3E3E"/>
<path d="M99.8742 35.1401V56.4791H97.8827V35.1401C97.8827 32.8041 97.3405 30.69 96.2562 28.7979C95.194 26.9058 93.7557 25.3991 91.9411 24.2778C90.1487 23.1332 88.1571 22.5609 85.9664 22.5609C83.7757 22.5609 81.773 23.1332 79.9585 24.2778C78.1661 25.3991 76.7277 26.9058 75.6434 28.7979C74.5813 30.69 74.0502 32.8041 74.0502 35.1401V56.4791H72.0586V21.4396H74.0502V27.5715C75.2672 25.4224 76.9269 23.7055 79.0291 22.4207C81.1313 21.1126 83.4438 20.4585 85.9664 20.4585C88.5333 20.4585 90.8679 21.1242 92.9701 22.4558C95.0723 23.7639 96.743 25.5276 97.9822 27.7467C99.2436 29.9659 99.8742 32.4303 99.8742 35.1401Z" fill="black" fill-opacity="0.2"/>
<path d="M49.5779 57.3902C46.5241 57.3902 43.7359 56.5609 41.2133 54.9024C38.7128 53.2438 36.7101 51.0247 35.2054 48.2449C33.7228 45.4417 32.9814 42.3465 32.9814 38.9594C32.9814 36.3898 33.413 33.9954 34.276 31.7763C35.139 29.5337 36.3229 27.5715 37.8276 25.8896C39.3545 24.1844 41.1248 22.8529 43.1385 21.8951C45.1522 20.9374 47.2986 20.4585 49.5779 20.4585C51.9456 20.4585 54.1253 20.9257 56.1169 21.8601C58.1085 22.7945 59.8456 24.126 61.3282 25.8546C62.8108 27.5832 63.9615 29.6505 64.7802 32.0566C65.6211 34.4393 66.0637 37.0906 66.108 40.0106H34.973C35.1943 42.9305 35.9799 45.5468 37.3297 47.8594C38.7017 50.1487 40.4498 51.959 42.5742 53.2905C44.6985 54.6221 47.0331 55.2878 49.5779 55.2878C52.4103 55.2878 54.9551 54.4936 57.2123 52.9051C59.4694 51.3167 61.2618 49.1208 62.5895 46.3177L64.5811 46.8082C63.2534 49.9151 61.2507 52.4613 58.5732 54.4469C55.8956 56.4091 52.8972 57.3902 49.5779 57.3902ZM34.973 37.9082H64.1164C64.0279 35.1751 63.3197 32.6406 61.992 30.3046C60.6643 27.9686 58.9162 26.0999 56.7476 24.6983C54.579 23.2733 52.1891 22.5609 49.5779 22.5609C46.9446 22.5609 44.5547 23.25 42.4082 24.6282C40.2839 26.0064 38.5579 27.8635 37.2301 30.1995C35.9024 32.5121 35.15 35.0817 34.973 37.9082Z" fill="#3E3E3E"/>
<path d="M49.5779 57.3902C46.5241 57.3902 43.7359 56.5609 41.2133 54.9024C38.7128 53.2438 36.7101 51.0247 35.2054 48.2449C33.7228 45.4417 32.9814 42.3465 32.9814 38.9594C32.9814 36.3898 33.413 33.9954 34.276 31.7763C35.139 29.5337 36.3229 27.5715 37.8276 25.8896C39.3545 24.1844 41.1248 22.8529 43.1385 21.8951C45.1522 20.9374 47.2986 20.4585 49.5779 20.4585C51.9456 20.4585 54.1253 20.9257 56.1169 21.8601C58.1085 22.7945 59.8456 24.126 61.3282 25.8546C62.8108 27.5832 63.9615 29.6505 64.7802 32.0566C65.6211 34.4393 66.0637 37.0906 66.108 40.0106H34.973C35.1943 42.9305 35.9799 45.5468 37.3297 47.8594C38.7017 50.1487 40.4498 51.959 42.5742 53.2905C44.6985 54.6221 47.0331 55.2878 49.5779 55.2878C52.4103 55.2878 54.9551 54.4936 57.2123 52.9051C59.4694 51.3167 61.2618 49.1208 62.5895 46.3177L64.5811 46.8082C63.2534 49.9151 61.2507 52.4613 58.5732 54.4469C55.8956 56.4091 52.8972 57.3902 49.5779 57.3902ZM34.973 37.9082H64.1164C64.0279 35.1751 63.3197 32.6406 61.992 30.3046C60.6643 27.9686 58.9162 26.0999 56.7476 24.6983C54.579 23.2733 52.1891 22.5609 49.5779 22.5609C46.9446 22.5609 44.5547 23.25 42.4082 24.6282C40.2839 26.0064 38.5579 27.8635 37.2301 30.1995C35.9024 32.5121 35.15 35.0817 34.973 37.9082Z" fill="black" fill-opacity="0.2"/>
<path d="M28.3467 23.5418L2.65543 54.3766H28.3467V56.479H0V54.3766L25.6913 23.5418H0V21.4395H28.3467V23.5418Z" fill="#3E3E3E"/>
<path d="M28.3467 23.5418L2.65543 54.3766H28.3467V56.479H0V54.3766L25.6913 23.5418H0V21.4395H28.3467V23.5418Z" fill="black" fill-opacity="0.2"/>
<path d="M157.778 6.83992C157.778 10.065 152.246 15.5998 152.246 15.5998C152.246 15.5998 146.714 10.065 146.714 6.83992C146.714 5.29108 147.297 3.80567 148.334 2.71047C149.372 1.61528 150.779 1 152.246 1C153.713 1 155.12 1.61528 156.158 2.71047C157.195 3.80567 157.778 5.29108 157.778 6.83992Z" stroke="#3E3E3E" stroke-width="0.3"/>
<path d="M157.778 6.83992C157.778 10.065 152.246 15.5998 152.246 15.5998C152.246 15.5998 146.714 10.065 146.714 6.83992C146.714 5.29108 147.297 3.80567 148.334 2.71047C149.372 1.61528 150.779 1 152.246 1C153.713 1 155.12 1.61528 156.158 2.71047C157.195 3.80567 157.778 5.29108 157.778 6.83992Z" stroke="black" stroke-opacity="0.2" stroke-width="0.3"/>
<path d="M152.246 7.56936C152.43 7.56936 152.605 7.49245 152.735 7.35555C152.865 7.21865 152.938 7.03297 152.938 6.83937C152.938 6.64576 152.865 6.46008 152.735 6.32318C152.605 6.18628 152.43 6.10938 152.246 6.10938C152.063 6.10938 151.887 6.18628 151.757 6.32318C151.628 6.46008 151.555 6.64576 151.555 6.83937C151.555 7.03297 151.628 7.21865 151.757 7.35555C151.887 7.49245 152.063 7.56936 152.246 7.56936Z" stroke="#3E3E3E" stroke-width="0.3" stroke-linecap="round" stroke-linejoin="round"/>
<path d="M152.246 7.56936C152.43 7.56936 152.605 7.49245 152.735 7.35555C152.865 7.21865 152.938 7.03297 152.938 6.83937C152.938 6.64576 152.865 6.46008 152.735 6.32318C152.605 6.18628 152.43 6.10938 152.246 6.10938C152.063 6.10938 151.887 6.18628 151.757 6.32318C151.628 6.46008 151.555 6.64576 151.555 6.83937C151.555 7.03297 151.628 7.21865 151.757 7.35555C151.887 7.49245 152.063 7.56936 152.246 7.56936Z" stroke="black" stroke-opacity="0.2" stroke-width="0.3" stroke-linecap="round" stroke-linejoin="round"/>
</svg>
