<svg width="16" height="16" viewBox="0 0 16 16" fill="none" xmlns="http://www.w3.org/2000/svg">
<rect width="16" height="16" rx="1" fill="white"/>
<path d="M14.9384 7.25443C14.8381 6.47318 14.5964 5.71671 14.2252 5.0219C13.4757 3.6254 12.26 2.53618 10.7899 1.94402C10.6041 1.87945 10.4231 1.8023 10.2341 1.74883L9.66415 1.60088L9.08161 1.51275C8.88801 1.48601 8.68965 1.4876 8.49433 1.47491V1.47478C7.70833 1.45513 6.92474 1.57171 6.17843 1.81963C4.67465 2.32513 3.40058 3.35063 2.58562 4.71185C2.18046 5.38566 1.8964 6.12528 1.74649 6.89703L1.65823 7.47957L1.62833 8.06844C1.62283 8.16646 1.62283 8.26485 1.62833 8.36287C1.62833 8.46053 1.62833 8.55806 1.6409 8.65572C1.66299 8.85091 1.67398 9.04769 1.71329 9.23982H1.71341C1.96903 10.8061 2.77457 12.2301 3.98525 13.2561C4.18923 13.4171 4.40322 13.5649 4.626 13.6986C4.84427 13.8466 5.07144 13.9813 5.30619 14.1015C5.77128 14.3369 6.2636 14.514 6.772 14.629C7.27835 14.74 7.79678 14.7871 8.31485 14.7691C7.80069 14.7497 7.29019 14.6742 6.79238 14.544C6.71206 14.5219 6.63491 14.4968 6.55153 14.4732V14.4731C7.12953 14.6045 7.72341 14.6512 8.31485 14.6117C7.89919 14.5857 7.48697 14.5202 7.08366 14.4165C7.19706 14.4306 7.30876 14.4432 7.42216 14.4527C7.66703 14.4681 7.9125 14.4687 8.15738 14.4542C7.67166 14.4239 7.18947 14.3501 6.71682 14.2339C6.39869 14.1533 6.08632 14.0517 5.78163 13.93C5.23757 13.6588 4.73572 13.3098 4.29225 12.894C3.16385 11.9433 2.41272 10.6205 2.17469 9.16434C2.13843 8.9849 2.12904 8.80228 2.10853 8.62112C2.09913 8.5314 2.10853 8.4385 2.09595 8.34879C2.09046 8.25748 2.09046 8.16605 2.09595 8.07486L2.12745 7.52689L2.20936 6.98686V6.98698C2.35108 6.2692 2.61755 5.58183 2.99648 4.95598C3.75186 3.6912 4.93373 2.73773 6.32961 2.26689C7.02358 2.03898 7.75173 1.93255 8.48183 1.95195C8.66445 1.96453 8.84708 1.96135 9.02808 1.98662L9.57445 2.06377L10.1035 2.20073C10.2783 2.25115 10.4468 2.32354 10.6199 2.38177C11.9845 2.93389 13.1125 3.9467 13.808 5.24408C14.1532 5.88911 14.3778 6.59186 14.4707 7.31758C14.4999 7.49775 14.5156 7.67989 14.5179 7.86239L14.5321 8.13473V8.40865C14.5311 8.50021 14.5253 8.59164 14.5149 8.68258C14.5149 8.7723 14.5023 8.86361 14.4866 8.95333C14.4582 9.13436 14.4283 9.31392 14.3937 9.49336H14.3935C14.3351 9.82039 14.2504 10.142 14.1401 10.4554C14.0881 10.5734 14.0331 10.6884 13.9748 10.8033C13.7544 11.2405 13.4906 11.6546 13.1876 12.0393C12.8792 12.4255 12.5354 12.7823 12.1611 13.105C12.5759 12.826 12.9523 12.4935 13.2805 12.1164C13.3136 12.0786 13.3435 12.0392 13.375 12.0014C13.0471 12.4798 12.6599 12.9147 12.2225 13.2956C12.5019 13.1078 12.7652 12.8973 13.0097 12.6658C12.7657 12.946 12.5026 13.2091 12.2225 13.4531C12.6532 13.159 13.0415 12.8073 13.3766 12.4077C13.6746 12.0587 13.9309 11.6761 14.1401 11.2677C14.4524 10.7453 14.6908 10.1821 14.8486 9.59415C15.0175 8.82584 15.0479 8.03359 14.9384 7.25456L14.9384 7.25443Z" fill="black"/>
<path d="M11.539 9.97072C11.3933 9.89564 11.2307 9.85927 11.0668 9.86525C10.7645 9.89992 10.4753 10.0081 10.2245 10.1802C9.9757 10.3251 9.73485 10.4808 9.49863 10.6431C9.34116 10.7549 9.1837 10.8713 9.01682 10.991L8.5587 10.7863C8.4564 10.739 8.35093 10.6934 8.24376 10.6477H8.24388C8.55003 10.4149 8.83935 10.1608 9.10973 9.88733C9.54551 9.4718 9.89207 8.97205 10.1284 8.41833C10.1858 8.26635 10.2234 8.10766 10.2402 7.94605C10.257 7.78907 10.257 7.63073 10.2402 7.47376L10.2245 7.3683L10.193 7.24867L10.1599 7.13063C10.1426 7.09132 10.1236 7.05348 10.1049 7.01564C10.0885 6.97682 10.0691 6.93934 10.0465 6.90382L9.96935 6.79994C9.91674 6.7328 9.85595 6.6725 9.78832 6.62037C9.52514 6.43239 9.2097 6.33156 8.88623 6.33229H8.77758C8.85644 6.2715 8.92224 6.19545 8.97119 6.10878C9.06091 5.9391 9.10583 5.74953 9.10192 5.55762C9.10278 5.74329 9.03625 5.92287 8.91455 6.06312C8.80542 6.19032 8.63708 6.25026 8.47217 6.22047C8.3368 6.18251 8.22535 6.08607 8.16834 5.95753C8.10755 5.83094 8.07678 5.69191 8.07849 5.55141C8.07678 5.41066 8.10803 5.27162 8.16992 5.14516C8.22815 5.01942 8.33862 4.92567 8.47217 4.88857C8.6366 4.85939 8.8042 4.91933 8.91295 5.04604C9.03722 5.18727 9.10449 5.36962 9.10192 5.55762C9.10315 5.36817 9.05651 5.18129 8.96654 5.01454C8.86852 4.82216 8.68505 4.68788 8.47217 4.65235C8.35339 4.63636 8.23242 4.6532 8.12267 4.70118C8.01476 4.75074 7.91918 4.82325 7.84239 4.9137C7.69066 5.09376 7.60863 5.32227 7.61095 5.55761C7.61009 5.79284 7.69201 6.02073 7.84239 6.20164C7.91613 6.28538 8.00609 6.35337 8.10692 6.40159C8.07066 6.40159 8.03294 6.41575 7.99669 6.42515C7.9243 6.44248 7.85179 6.45664 7.78258 6.47874C7.70848 6.49705 7.63585 6.52073 7.56529 6.54954C7.48888 6.57725 7.41637 6.61484 7.3496 6.66135L7.24889 6.73215C7.21739 6.7573 7.19225 6.78879 7.16234 6.81712H7.16222C6.95152 7.051 6.82309 7.3474 6.79697 7.66112C6.76645 7.96092 6.80356 8.26377 6.90561 8.54746C6.99802 8.84226 7.20591 9.08702 7.4818 9.22605C7.62804 9.28892 7.79381 9.28892 7.94005 9.22605C8.07628 9.15794 8.18687 9.04747 8.25486 8.91112C8.37925 8.64915 8.45298 8.36608 8.47215 8.07665C8.4282 8.35411 8.33311 8.62108 8.19187 8.86387C8.12754 8.98191 8.0272 9.07627 7.90537 9.13315C7.78208 9.1793 7.64512 9.17185 7.52743 9.11265C7.29855 8.9741 7.13387 8.75046 7.06931 8.49083C6.99412 8.23107 6.97788 7.95774 7.02207 7.69102C7.05539 7.4337 7.17087 7.19408 7.35116 7.00768C7.37216 6.98558 7.39486 6.96507 7.41879 6.94628L7.49594 6.89745C7.54465 6.8651 7.59775 6.83971 7.65341 6.82189C7.71579 6.79857 7.78012 6.78075 7.84555 6.76842C7.91171 6.75109 7.97934 6.7401 8.04709 6.72594V6.72582C8.31308 6.67491 8.58421 6.65636 8.85471 6.67076C9.10496 6.67565 9.34762 6.75817 9.54906 6.90697C9.72594 7.0692 9.82884 7.29675 9.83397 7.53672C9.84581 7.66392 9.84581 7.79197 9.83397 7.91928C9.817 8.04343 9.78477 8.16513 9.7379 8.28134C9.51305 8.77316 9.19187 9.21481 8.79331 9.58028C8.46824 9.89497 8.11924 10.1839 7.74949 10.4445C7.48021 10.3385 7.20531 10.247 6.92612 10.1706C6.63632 10.0852 6.33799 10.0324 6.03646 10.0131C5.87374 10.0053 5.71065 10.0191 5.55159 10.0542C5.36494 10.0941 5.19477 10.1895 5.06356 10.3281C4.99068 10.4085 4.93697 10.5043 4.90608 10.6084C4.88106 10.7082 4.8763 10.812 4.89192 10.9138C4.9239 11.1 5.00862 11.2733 5.13594 11.4128C5.38228 11.6893 5.75313 11.82 6.11838 11.7592C6.42136 11.6969 6.71347 11.5908 6.98594 11.4443C7.25084 11.3082 7.50744 11.1562 7.75426 10.9893L7.84239 10.9279C8.02501 10.9987 8.2092 11.0743 8.39183 11.153L8.65318 11.2633C8.48314 11.4082 8.31468 11.5498 8.15721 11.6978C8.33983 11.5572 8.52671 11.4228 8.71777 11.2948C9.14149 11.4884 9.58277 11.6407 10.0355 11.7497C10.3385 11.8189 10.6523 11.8259 10.9581 11.7702C11.2759 11.7092 11.5638 11.5428 11.7752 11.298C11.8813 11.1647 11.948 11.0044 11.9674 10.8351C11.9869 10.6659 11.9585 10.4946 11.8855 10.3407C11.8088 10.186 11.6883 10.0574 11.539 9.97072ZM6.78448 11.0256C6.55413 11.1487 6.30779 11.2389 6.05229 11.2932C5.84403 11.3303 5.63151 11.2571 5.49029 11.0996C5.42278 11.0285 5.37749 10.9393 5.35955 10.8429C5.34344 10.7684 5.3626 10.6906 5.41155 10.632C5.5108 10.5123 5.77215 10.4556 6.02399 10.4745C6.2901 10.4892 6.5539 10.5314 6.81121 10.6005C6.96868 10.6414 7.12615 10.6886 7.28349 10.7406C7.12919 10.8399 6.95916 10.939 6.78448 11.0256ZM11.5298 11.0964C11.3574 11.2763 11.1315 11.3955 10.8859 11.4365C10.6272 11.4729 10.3639 11.4574 10.1112 11.3909C9.76869 11.2968 9.43448 11.1752 9.11148 11.0271C9.25955 10.928 9.41689 10.8319 9.56497 10.7422C9.80899 10.5958 10.0562 10.4573 10.3081 10.3313H10.308C10.5374 10.1924 10.7975 10.1123 11.0653 10.0983C11.1868 10.098 11.3062 10.1295 11.4118 10.1896C11.5614 10.2838 11.6613 10.4398 11.6841 10.6153C11.7069 10.7907 11.6503 10.9671 11.5298 11.0964Z" fill="#E61C5D"/>
<path d="M10.4587 14.5153C10.229 14.6808 9.973 14.9274 10.0048 14.9814C10.0365 15.0354 10.3431 14.8777 10.5729 14.711C10.5937 14.6954 10.6143 14.681 10.6339 14.6664C10.67 14.6772 10.7455 14.699 10.8417 14.7265C10.8406 14.7264 10.8385 14.7262 10.8375 14.7261L10.7755 14.7705C10.7675 14.7756 10.7662 14.7885 10.7728 14.7974L10.8108 14.8626C10.8162 14.8726 10.8265 14.876 10.8346 14.8698L10.8966 14.8253C10.8966 14.8253 10.9015 14.8187 10.903 14.8142L10.9753 14.7625C11.057 14.7862 11.146 14.8117 11.2339 14.8372L11.173 14.8805C11.1651 14.8856 11.1638 14.8985 11.1703 14.9074L11.2084 14.9727C11.2138 14.9826 11.224 14.986 11.2321 14.9798L11.2941 14.9353C11.2941 14.9353 11.2991 14.9288 11.3006 14.9242L11.3705 14.8746C11.5939 14.9387 11.7813 14.9907 11.7879 14.989C11.8042 14.9848 11.8932 14.9159 11.8932 14.9159C11.915 14.9005 11.9304 14.8855 11.9295 14.883C11.9277 14.8805 11.9027 14.8957 11.8821 14.9101L11.4811 14.6982C11.4974 14.6845 11.5072 14.6714 11.5045 14.6664C11.5009 14.6601 11.4809 14.6687 11.4601 14.6843L11.4578 14.6864L11.379 14.6442C11.3942 14.6316 11.404 14.6184 11.4013 14.6134C11.3977 14.6071 11.3777 14.6157 11.3569 14.6313L11.2851 14.5945L11.2435 14.5537C11.262 14.5391 11.2753 14.5239 11.2726 14.5189C11.269 14.5126 11.2489 14.5212 11.2282 14.5368L11.2271 14.5367L11.1447 14.4575C11.1632 14.4429 11.1765 14.4277 11.1727 14.4226C11.1691 14.4163 11.1491 14.4249 11.1283 14.4405L11.0528 14.3667C11.2059 14.2537 11.2659 14.2078 11.3796 14.125C11.4945 14.0422 11.6003 13.9538 11.6861 13.874C11.8083 13.9077 12.0491 13.9782 12.0491 13.9782L12.1171 13.9379L11.8738 13.6818C11.8908 13.6611 11.9042 13.6448 11.9119 13.6314C11.9573 13.5935 11.9844 13.568 11.9817 13.563C11.979 13.558 11.9476 13.5737 11.8998 13.6042C11.8856 13.6075 11.8656 13.6161 11.8401 13.6265L11.7305 13.2696L11.6689 13.3211C11.6689 13.3211 11.6242 13.614 11.6021 13.7475C11.5051 13.8014 11.3943 13.8656 11.2784 13.9376C11.136 14.04 11.072 14.0831 10.9402 14.1759L10.9117 14.0692C10.9336 14.0525 10.948 14.0363 10.9444 14.03C10.9417 14.025 10.924 14.0315 10.9035 14.0447L10.8718 13.927L10.8729 13.9271C10.8948 13.9105 10.9093 13.8931 10.9056 13.888C10.9029 13.883 10.8842 13.8893 10.8647 13.9027L10.8483 13.8444L10.8467 13.7557C10.8685 13.7402 10.883 13.7228 10.8794 13.7165C10.8767 13.7115 10.8624 13.716 10.8453 13.7272L10.8436 13.6291L10.8457 13.6293C10.8676 13.6127 10.8821 13.5953 10.8785 13.589C10.8758 13.584 10.8604 13.5895 10.8432 13.6008L10.8361 13.1055C10.8558 13.0898 10.879 13.0709 10.8782 13.0685C10.8763 13.0659 10.8582 13.0759 10.8365 13.0914C10.8365 13.0914 10.7428 13.1539 10.7339 13.1683C10.7302 13.1738 10.6958 13.3863 10.6552 13.6395L10.5852 13.689C10.5852 13.689 10.5768 13.6882 10.5734 13.6902L10.5114 13.7346C10.5034 13.7397 10.5021 13.7526 10.5087 13.7615L10.5467 13.8267C10.5521 13.8367 10.5624 13.8401 10.5705 13.8339L10.6313 13.7905C10.6158 13.8904 10.6004 13.9903 10.5855 14.0844L10.5132 14.1361C10.5132 14.1361 10.5048 14.1352 10.5014 14.1372L10.4394 14.1817C10.4314 14.1868 10.4301 14.1996 10.4366 14.2086L10.4747 14.2738C10.4801 14.2838 10.4904 14.2872 10.4985 14.2809L10.5605 14.2365C10.5605 14.2365 10.5607 14.2341 10.5631 14.232C10.5457 14.34 10.5328 14.4249 10.5264 14.4667C10.5069 14.4812 10.4862 14.4957 10.4644 14.5112L10.4587 14.5153Z" fill="#E61C5D"/>
</svg>
